 <svg xmlns="http://www.w3.org/2000/svg" viewBox="0 0 228.78 43.76">
              <defs>
                <style>
                  .cls-2 {
                    fill: #FFFFFF
                  }
                </style>
              </defs>
              <title>logo</title>
              <g id="Layer_2" data-name="Layer 2">
                <g id="Layer_1-2" data-name="Layer 1">
                  <g id="_Group_" data-name="&lt;Group&gt;">
                    <path id="_Compound_Path_" data-name="&lt;Compound Path&gt;" class="cls-2"
                      d="M54 42.9l4.91-25.63h-4.37l1.31-6.78h4.32L62.2 0H70l-2 10.49h4.62l-1.26 6.78h-4.72l-5 25.63z" />
                    <path id="_Compound_Path_2" data-name="&lt;Compound Path&gt;" class="cls-2"
                      d="M73.66 42.9l4.91-25.63h-4.34l1.32-6.78h4.32L81.9 0h7.75l-2 10.49h4.62L91 17.27h-4.67l-5 25.63z" />
                    <path id="_Compound_Path_3" data-name="&lt;Compound Path&gt;" class="cls-2"
                      d="M124.15 32.74a16.81 16.81 0 0 1-16.4 11 15 15 0 0 1-11.13-4.41 15.31 15.31 0 0 1-4.35-11.24 18.89 18.89 0 0 1 1.63-7.76 19.2 19.2 0 0 1 4.65-6.41 16.13 16.13 0 0 1 5.23-3.18A17.76 17.76 0 0 1 110 9.67a14.92 14.92 0 0 1 15.58 15.58c0 .56 0 1.2-.09 1.9s-.16 1.48-.29 2.32H99.81a9.26 9.26 0 0 0 2.81 5.39 8 8 0 0 0 5.47 1.83 9.47 9.47 0 0 0 4.34-1 10.38 10.38 0 0 0 3.5-3zm-23.55-9.61h17.48A8.48 8.48 0 0 0 115 18.4a9.63 9.63 0 0 0-10.91 0 10 10 0 0 0-3.49 4.73z" />
                    <path id="_Compound_Path_4" data-name="&lt;Compound Path&gt;" class="cls-2"
                      d="M139.39 10.49l-.67 3.09a13 13 0 0 1 3.91-2.72A10.82 10.82 0 0 1 147 10q5.78 0 8.72 2.65t2.94 7.9a24.49 24.49 0 0 1-.27 3c-.19 1.35-.46 2.9-.81 4.67l-2.81 14.68h-7.72l3.27-17.12c.14-.67.24-1.34.33-2a17.75 17.75 0 0 0 .11-2 5.43 5.43 0 0 0-1.29-3.9 5 5 0 0 0-3.74-1.34 7.21 7.21 0 0 0-5.67 2.46q-2.13 2.41-3.13 7.6l-3.3 16.3h-7.43l6.52-32.41z" />
                    <path id="_Compound_Path_5" data-name="&lt;Compound Path&gt;" class="cls-2"
                      d="M184 42.9l.41-2.24a11 11 0 0 1-3.75 2.34 12.83 12.83 0 0 1-4.55.77 14.17 14.17 0 0 1-10.81-4.41q-4.15-4.4-4.15-11.54a18.5 18.5 0 0 1 .89-5.75 19.54 19.54 0 0 1 2.71-5.3 16.28 16.28 0 0 1 6-5.18 17 17 0 0 1 7.79-1.8 14.19 14.19 0 0 1 5.89 1.21 13.84 13.84 0 0 1 4.79 3.65L192 0h7.54l-8.19 42.9zm-5.15-26.31a9.55 9.55 0 0 0-7.21 3.26 11.1 11.1 0 0 0-3 7.85 9.14 9.14 0 0 0 2.32 6.51 8 8 0 0 0 6.04 2.47 9.29 9.29 0 0 0 7.18-3.25 11.54 11.54 0 0 0 2.94-8 8.83 8.83 0 0 0-2.35-6.34 7.86 7.86 0 0 0-5.95-2.5z" />
                    <path id="_Compound_Path_6" data-name="&lt;Compound Path&gt;" class="cls-2"
                      d="M197.08 32.24h7.6v.18a5 5 0 0 0 1 3.28 3.38 3.38 0 0 0 2.73 1.16 3.15 3.15 0 0 0 2.27-.87 3 3 0 0 0 .89-2.2 3.18 3.18 0 0 0-.7-2 9.9 9.9 0 0 0-2.4-2c-.61-.41-1.43-.95-2.49-1.59a20 20 0 0 1-3.51-2.54 9.28 9.28 0 0 1-1.75-2.66 8.06 8.06 0 0 1-.54-3 9.57 9.57 0 0 1 3.13-7.26 11 11 0 0 1 7.84-2.93 10.07 10.07 0 0 1 7.26 2.68 9.3 9.3 0 0 1 2.79 7V20h-7.6a4.66 4.66 0 0 0-.77-2.72 2.42 2.42 0 0 0-2-.93 2.92 2.92 0 0 0-2 .78 2.46 2.46 0 0 0-.85 1.87q0 1.71 3.76 4l1 .62a19.11 19.11 0 0 1 5.26 4.46 8 8 0 0 1 1.5 4.8 10.4 10.4 0 0 1-3.18 7.77 11 11 0 0 1-8 3.11Q203 43.76 200 41a9.87 9.87 0 0 1-3-7.62v-.53c0-.26.08-.47.08-.61z" />
                    <g id="_Group_2" data-name="&lt;Group&gt;">
                      <path id="_Compound_Path_7" data-name="&lt;Compound Path&gt;" class="cls-2"
                        d="M221.19 3.87a3.8 3.8 0 1 1 7.59 0 3.8 3.8 0 1 1-7.59 0zm7.16 0A3.35 3.35 0 0 0 225 .41a3.39 3.39 0 0 0-3.36 3.43 3.36 3.36 0 1 0 6.72 0zm-4.92-2.06h1.85c.92 0 1.59.41 1.59 1.32a1.22 1.22 0 0 1-.87 1.2l1 1.43h-1.15L225 4.51h-.61v1.25h-1zm1.78 1.93c.43 0 .67-.22.67-.55s-.26-.55-.67-.55h-.83v1.1z" />
                    </g>
                    <path id="_Path_" data-name="&lt;Path&gt;" class="cls-2"
                      d="M47.57 26.78l-.68-3.15L41.81 0h-8.92L22.62 18.44c1.44.67 2.85 1.44 4.24 2.2.9.49 1.79 1 2.67 1.42l6.24-11.51 3.19 15.33c-7.81 1-14.55-6.56-22.42-7.92C7.4 16.39 1 22.62 0 23.66a17 17 0 0 1 14.66 1.05C23 29.32 32 35.57 40.61 33.86c3.59-.73 8-2.06 8-2.06z" />
                    <path id="_Path_2" data-name="&lt;Path&gt;" class="cls-2"
                      d="M17.35 28.18L9 42.9h9.15s5-8.89 6.1-10.92c-2.25-1.13-4.48-2.41-6.69-3.67z" />
                    <path id="_Path_3" data-name="&lt;Path&gt;" class="cls-2"
                      d="M48.94 33.26c-.52.16-4.67 1.38-8 2.06l1.64 7.58H51z" />
                  </g>
                </g>
              </g>
            </svg>