<svg xmlns="http://www.w3.org/2000/svg" width="659" height="238.18" viewBox="0 0 659 238.18">
  <g id="Group_4430" data-name="Group 4430" transform="translate(-41 -7931)">
    <g id="Group_3925" data-name="Group 3925" transform="translate(-1116.031 6439.322)">
      <rect id="Rectangle_236" data-name="Rectangle 236" width="595.719" height="195.473" transform="translate(1157.031 1534.385)" fill="#8dc6e8"/>
      <g id="Group_3925-2" data-name="Group 3925">
        <line id="Line_96" data-name="Line 96" y2="195.473" transform="translate(1164.656 1534.385)" fill="none" stroke="#fff" stroke-miterlimit="10" stroke-width="1"/>
        <line id="Line_97" data-name="Line 97" y2="195.473" transform="translate(1171.5 1534.385)" fill="none" stroke="#fff" stroke-miterlimit="10" stroke-width="1"/>
        <line id="Line_98" data-name="Line 98" y2="195.473" transform="translate(1178.344 1534.385)" fill="none" stroke="#fff" stroke-miterlimit="10" stroke-width="1"/>
        <line id="Line_99" data-name="Line 99" y2="195.473" transform="translate(1185.188 1534.385)" fill="none" stroke="#fff" stroke-miterlimit="10" stroke-width="1"/>
        <line id="Line_100" data-name="Line 100" y2="195.473" transform="translate(1192.031 1534.385)" fill="none" stroke="#fff" stroke-miterlimit="10" stroke-width="1"/>
        <line id="Line_101" data-name="Line 101" y2="195.473" transform="translate(1198.875 1534.385)" fill="none" stroke="#fff" stroke-miterlimit="10" stroke-width="1"/>
        <line id="Line_102" data-name="Line 102" y2="195.473" transform="translate(1205.719 1534.385)" fill="none" stroke="#fff" stroke-miterlimit="10" stroke-width="1"/>
        <line id="Line_103" data-name="Line 103" y2="195.473" transform="translate(1212.563 1534.385)" fill="none" stroke="#fff" stroke-miterlimit="10" stroke-width="1"/>
        <line id="Line_104" data-name="Line 104" y2="195.473" transform="translate(1219.406 1534.385)" fill="none" stroke="#fff" stroke-miterlimit="10" stroke-width="1"/>
        <line id="Line_105" data-name="Line 105" y2="195.473" transform="translate(1226.25 1534.385)" fill="none" stroke="#fff" stroke-miterlimit="10" stroke-width="1"/>
        <line id="Line_106" data-name="Line 106" y2="195.473" transform="translate(1233.094 1534.385)" fill="none" stroke="#fff" stroke-miterlimit="10" stroke-width="1"/>
        <line id="Line_107" data-name="Line 107" y2="195.473" transform="translate(1239.938 1534.385)" fill="none" stroke="#fff" stroke-miterlimit="10" stroke-width="1"/>
        <line id="Line_108" data-name="Line 108" y2="195.473" transform="translate(1246.781 1534.385)" fill="none" stroke="#fff" stroke-miterlimit="10" stroke-width="1"/>
        <line id="Line_109" data-name="Line 109" y2="195.473" transform="translate(1253.625 1534.385)" fill="none" stroke="#fff" stroke-miterlimit="10" stroke-width="1"/>
        <line id="Line_110" data-name="Line 110" y2="195.473" transform="translate(1260.469 1534.385)" fill="none" stroke="#fff" stroke-miterlimit="10" stroke-width="1"/>
        <line id="Line_111" data-name="Line 111" y2="195.473" transform="translate(1267.313 1534.385)" fill="none" stroke="#fff" stroke-miterlimit="10" stroke-width="1"/>
        <line id="Line_112" data-name="Line 112" y2="195.473" transform="translate(1274.156 1534.385)" fill="none" stroke="#fff" stroke-miterlimit="10" stroke-width="1"/>
        <line id="Line_113" data-name="Line 113" y2="195.473" transform="translate(1281 1534.385)" fill="none" stroke="#fff" stroke-miterlimit="10" stroke-width="1"/>
        <line id="Line_114" data-name="Line 114" y2="195.473" transform="translate(1287.844 1534.385)" fill="none" stroke="#fff" stroke-miterlimit="10" stroke-width="1"/>
        <line id="Line_115" data-name="Line 115" y2="195.473" transform="translate(1294.688 1534.385)" fill="none" stroke="#fff" stroke-miterlimit="10" stroke-width="1"/>
        <line id="Line_116" data-name="Line 116" y2="195.473" transform="translate(1301.531 1534.385)" fill="none" stroke="#fff" stroke-miterlimit="10" stroke-width="1"/>
        <line id="Line_117" data-name="Line 117" y2="195.473" transform="translate(1308.375 1534.385)" fill="none" stroke="#fff" stroke-miterlimit="10" stroke-width="1"/>
        <line id="Line_118" data-name="Line 118" y2="195.473" transform="translate(1315.219 1534.385)" fill="none" stroke="#fff" stroke-miterlimit="10" stroke-width="1"/>
        <line id="Line_119" data-name="Line 119" y2="195.473" transform="translate(1322.063 1534.385)" fill="none" stroke="#fff" stroke-miterlimit="10" stroke-width="1"/>
        <line id="Line_120" data-name="Line 120" y2="195.473" transform="translate(1328.906 1534.385)" fill="none" stroke="#fff" stroke-miterlimit="10" stroke-width="1"/>
        <line id="Line_121" data-name="Line 121" y2="195.473" transform="translate(1335.75 1534.385)" fill="none" stroke="#fff" stroke-miterlimit="10" stroke-width="1"/>
        <line id="Line_122" data-name="Line 122" y2="195.473" transform="translate(1342.594 1534.385)" fill="none" stroke="#fff" stroke-miterlimit="10" stroke-width="1"/>
        <line id="Line_123" data-name="Line 123" y2="195.473" transform="translate(1349.438 1534.385)" fill="none" stroke="#fff" stroke-miterlimit="10" stroke-width="1"/>
        <line id="Line_124" data-name="Line 124" y2="195.473" transform="translate(1356.281 1534.385)" fill="none" stroke="#fff" stroke-miterlimit="10" stroke-width="1"/>
        <line id="Line_125" data-name="Line 125" y2="195.473" transform="translate(1363.125 1534.385)" fill="none" stroke="#fff" stroke-miterlimit="10" stroke-width="1"/>
        <line id="Line_126" data-name="Line 126" y2="195.473" transform="translate(1369.969 1534.385)" fill="none" stroke="#fff" stroke-miterlimit="10" stroke-width="1"/>
        <line id="Line_127" data-name="Line 127" y2="195.473" transform="translate(1376.813 1534.385)" fill="none" stroke="#fff" stroke-miterlimit="10" stroke-width="1"/>
        <line id="Line_128" data-name="Line 128" y2="195.473" transform="translate(1383.656 1534.385)" fill="none" stroke="#fff" stroke-miterlimit="10" stroke-width="1"/>
        <line id="Line_129" data-name="Line 129" y2="195.473" transform="translate(1390.5 1534.385)" fill="none" stroke="#fff" stroke-miterlimit="10" stroke-width="1"/>
        <line id="Line_130" data-name="Line 130" y2="195.473" transform="translate(1397.344 1534.385)" fill="none" stroke="#fff" stroke-miterlimit="10" stroke-width="1"/>
        <line id="Line_131" data-name="Line 131" y2="195.473" transform="translate(1404.188 1534.385)" fill="none" stroke="#fff" stroke-miterlimit="10" stroke-width="1"/>
        <line id="Line_132" data-name="Line 132" y2="195.473" transform="translate(1411.031 1534.385)" fill="none" stroke="#fff" stroke-miterlimit="10" stroke-width="1"/>
        <line id="Line_133" data-name="Line 133" y2="195.473" transform="translate(1417.875 1534.385)" fill="none" stroke="#fff" stroke-miterlimit="10" stroke-width="1"/>
        <line id="Line_134" data-name="Line 134" y2="195.473" transform="translate(1424.719 1534.385)" fill="none" stroke="#fff" stroke-miterlimit="10" stroke-width="1"/>
        <line id="Line_135" data-name="Line 135" y2="195.473" transform="translate(1431.563 1534.385)" fill="none" stroke="#fff" stroke-miterlimit="10" stroke-width="1"/>
        <line id="Line_136" data-name="Line 136" y2="195.473" transform="translate(1438.406 1534.385)" fill="none" stroke="#fff" stroke-miterlimit="10" stroke-width="1"/>
        <line id="Line_137" data-name="Line 137" y2="195.473" transform="translate(1445.25 1534.385)" fill="none" stroke="#fff" stroke-miterlimit="10" stroke-width="1"/>
        <line id="Line_138" data-name="Line 138" y2="195.473" transform="translate(1452.094 1534.385)" fill="none" stroke="#fff" stroke-miterlimit="10" stroke-width="1"/>
        <line id="Line_139" data-name="Line 139" y2="195.473" transform="translate(1458.938 1534.385)" fill="none" stroke="#fff" stroke-miterlimit="10" stroke-width="1"/>
        <line id="Line_140" data-name="Line 140" y2="195.473" transform="translate(1465.781 1534.385)" fill="none" stroke="#fff" stroke-miterlimit="10" stroke-width="1"/>
        <line id="Line_141" data-name="Line 141" y2="195.473" transform="translate(1472.625 1534.385)" fill="none" stroke="#fff" stroke-miterlimit="10" stroke-width="1"/>
        <line id="Line_142" data-name="Line 142" y2="195.473" transform="translate(1479.469 1534.385)" fill="none" stroke="#fff" stroke-miterlimit="10" stroke-width="1"/>
        <line id="Line_143" data-name="Line 143" y2="195.473" transform="translate(1486.313 1534.385)" fill="none" stroke="#fff" stroke-miterlimit="10" stroke-width="1"/>
        <line id="Line_144" data-name="Line 144" y2="195.473" transform="translate(1493.156 1534.385)" fill="none" stroke="#fff" stroke-miterlimit="10" stroke-width="1"/>
        <line id="Line_145" data-name="Line 145" y2="195.473" transform="translate(1500 1534.385)" fill="none" stroke="#fff" stroke-miterlimit="10" stroke-width="1"/>
        <line id="Line_146" data-name="Line 146" y2="195.473" transform="translate(1506.844 1534.385)" fill="none" stroke="#fff" stroke-miterlimit="10" stroke-width="1"/>
        <line id="Line_147" data-name="Line 147" y2="195.473" transform="translate(1513.688 1534.385)" fill="none" stroke="#fff" stroke-miterlimit="10" stroke-width="1"/>
        <line id="Line_148" data-name="Line 148" y2="195.473" transform="translate(1520.531 1534.385)" fill="none" stroke="#fff" stroke-miterlimit="10" stroke-width="1"/>
        <line id="Line_149" data-name="Line 149" y2="195.473" transform="translate(1527.375 1534.385)" fill="none" stroke="#fff" stroke-miterlimit="10" stroke-width="1"/>
        <line id="Line_150" data-name="Line 150" y2="195.473" transform="translate(1534.219 1534.385)" fill="none" stroke="#fff" stroke-miterlimit="10" stroke-width="1"/>
        <line id="Line_151" data-name="Line 151" y2="195.473" transform="translate(1541.063 1534.385)" fill="none" stroke="#fff" stroke-miterlimit="10" stroke-width="1"/>
        <line id="Line_152" data-name="Line 152" y2="195.473" transform="translate(1547.906 1534.385)" fill="none" stroke="#fff" stroke-miterlimit="10" stroke-width="1"/>
        <line id="Line_153" data-name="Line 153" y2="195.473" transform="translate(1554.75 1534.385)" fill="none" stroke="#fff" stroke-miterlimit="10" stroke-width="1"/>
        <line id="Line_154" data-name="Line 154" y2="195.473" transform="translate(1561.594 1534.385)" fill="none" stroke="#fff" stroke-miterlimit="10" stroke-width="1"/>
        <line id="Line_155" data-name="Line 155" y2="195.473" transform="translate(1568.438 1534.385)" fill="none" stroke="#fff" stroke-miterlimit="10" stroke-width="1"/>
        <line id="Line_156" data-name="Line 156" y2="195.473" transform="translate(1575.281 1534.385)" fill="none" stroke="#fff" stroke-miterlimit="10" stroke-width="1"/>
        <line id="Line_157" data-name="Line 157" y2="195.473" transform="translate(1582.125 1534.385)" fill="none" stroke="#fff" stroke-miterlimit="10" stroke-width="1"/>
        <line id="Line_158" data-name="Line 158" y2="195.473" transform="translate(1588.969 1534.385)" fill="none" stroke="#fff" stroke-miterlimit="10" stroke-width="1"/>
        <line id="Line_159" data-name="Line 159" y2="195.473" transform="translate(1595.813 1534.385)" fill="none" stroke="#fff" stroke-miterlimit="10" stroke-width="1"/>
        <line id="Line_160" data-name="Line 160" y2="195.473" transform="translate(1602.656 1534.385)" fill="none" stroke="#fff" stroke-miterlimit="10" stroke-width="1"/>
        <line id="Line_161" data-name="Line 161" y2="195.473" transform="translate(1609.5 1534.385)" fill="none" stroke="#fff" stroke-miterlimit="10" stroke-width="1"/>
        <line id="Line_162" data-name="Line 162" y2="195.473" transform="translate(1616.344 1534.385)" fill="none" stroke="#fff" stroke-miterlimit="10" stroke-width="1"/>
        <line id="Line_163" data-name="Line 163" y2="195.473" transform="translate(1623.188 1534.385)" fill="none" stroke="#fff" stroke-miterlimit="10" stroke-width="1"/>
        <line id="Line_164" data-name="Line 164" y2="195.473" transform="translate(1630.031 1534.385)" fill="none" stroke="#fff" stroke-miterlimit="10" stroke-width="1"/>
        <line id="Line_165" data-name="Line 165" y2="195.473" transform="translate(1636.875 1534.385)" fill="none" stroke="#fff" stroke-miterlimit="10" stroke-width="1"/>
        <line id="Line_166" data-name="Line 166" y2="195.473" transform="translate(1643.719 1534.385)" fill="none" stroke="#fff" stroke-miterlimit="10" stroke-width="1"/>
        <line id="Line_167" data-name="Line 167" y2="195.473" transform="translate(1650.563 1534.385)" fill="none" stroke="#fff" stroke-miterlimit="10" stroke-width="1"/>
        <line id="Line_168" data-name="Line 168" y2="195.473" transform="translate(1657.406 1534.385)" fill="none" stroke="#fff" stroke-miterlimit="10" stroke-width="1"/>
        <line id="Line_169" data-name="Line 169" y2="195.473" transform="translate(1664.25 1534.385)" fill="none" stroke="#fff" stroke-miterlimit="10" stroke-width="1"/>
        <line id="Line_170" data-name="Line 170" y2="195.473" transform="translate(1671.094 1534.385)" fill="none" stroke="#fff" stroke-miterlimit="10" stroke-width="1"/>
        <line id="Line_171" data-name="Line 171" y2="195.473" transform="translate(1677.938 1534.385)" fill="none" stroke="#fff" stroke-miterlimit="10" stroke-width="1"/>
        <line id="Line_172" data-name="Line 172" y2="195.473" transform="translate(1684.781 1534.385)" fill="none" stroke="#fff" stroke-miterlimit="10" stroke-width="1"/>
        <line id="Line_173" data-name="Line 173" y2="195.473" transform="translate(1691.625 1534.385)" fill="none" stroke="#fff" stroke-miterlimit="10" stroke-width="1"/>
        <line id="Line_174" data-name="Line 174" y2="195.473" transform="translate(1698.469 1534.385)" fill="none" stroke="#fff" stroke-miterlimit="10" stroke-width="1"/>
        <line id="Line_175" data-name="Line 175" y2="195.473" transform="translate(1705.313 1534.385)" fill="none" stroke="#fff" stroke-miterlimit="10" stroke-width="1"/>
        <line id="Line_176" data-name="Line 176" y2="195.473" transform="translate(1712.156 1534.385)" fill="none" stroke="#fff" stroke-miterlimit="10" stroke-width="1"/>
        <line id="Line_177" data-name="Line 177" y2="195.473" transform="translate(1719 1534.385)" fill="none" stroke="#fff" stroke-miterlimit="10" stroke-width="1"/>
        <line id="Line_178" data-name="Line 178" y2="195.473" transform="translate(1725.844 1534.385)" fill="none" stroke="#fff" stroke-miterlimit="10" stroke-width="1"/>
        <line id="Line_179" data-name="Line 179" y2="195.473" transform="translate(1732.688 1534.385)" fill="none" stroke="#fff" stroke-miterlimit="10" stroke-width="1"/>
        <line id="Line_180" data-name="Line 180" y2="195.473" transform="translate(1739.531 1534.385)" fill="none" stroke="#fff" stroke-miterlimit="10" stroke-width="1"/>
        <line id="Line_181" data-name="Line 181" y2="195.473" transform="translate(1746.375 1534.385)" fill="none" stroke="#fff" stroke-miterlimit="10" stroke-width="1"/>
        <line id="Line_182" data-name="Line 182" x1="594.467" transform="translate(1158.283 1539.975)" fill="none" stroke="#fff" stroke-miterlimit="10" stroke-width="1"/>
        <line id="Line_183" data-name="Line 183" x1="594.467" transform="translate(1158.283 1546.819)" fill="none" stroke="#fff" stroke-miterlimit="10" stroke-width="1"/>
        <line id="Line_184" data-name="Line 184" x1="594.467" transform="translate(1158.283 1553.662)" fill="none" stroke="#fff" stroke-miterlimit="10" stroke-width="1"/>
        <line id="Line_185" data-name="Line 185" x1="594.467" transform="translate(1158.283 1560.506)" fill="none" stroke="#fff" stroke-miterlimit="10" stroke-width="1"/>
        <line id="Line_186" data-name="Line 186" x1="594.467" transform="translate(1158.283 1567.35)" fill="none" stroke="#fff" stroke-miterlimit="10" stroke-width="1"/>
        <line id="Line_187" data-name="Line 187" x1="594.467" transform="translate(1158.283 1574.194)" fill="none" stroke="#fff" stroke-miterlimit="10" stroke-width="1"/>
        <line id="Line_188" data-name="Line 188" x1="594.467" transform="translate(1158.283 1581.037)" fill="none" stroke="#fff" stroke-miterlimit="10" stroke-width="1"/>
        <line id="Line_189" data-name="Line 189" x1="594.467" transform="translate(1158.283 1587.881)" fill="none" stroke="#fff" stroke-miterlimit="10" stroke-width="1"/>
        <line id="Line_190" data-name="Line 190" x1="594.467" transform="translate(1158.283 1594.725)" fill="none" stroke="#fff" stroke-miterlimit="10" stroke-width="1"/>
        <line id="Line_191" data-name="Line 191" x1="594.467" transform="translate(1158.283 1601.569)" fill="none" stroke="#fff" stroke-miterlimit="10" stroke-width="1"/>
        <line id="Line_192" data-name="Line 192" x1="594.467" transform="translate(1158.283 1608.412)" fill="none" stroke="#fff" stroke-miterlimit="10" stroke-width="1"/>
        <line id="Line_193" data-name="Line 193" x1="594.467" transform="translate(1158.283 1615.256)" fill="none" stroke="#fff" stroke-miterlimit="10" stroke-width="1"/>
        <line id="Line_194" data-name="Line 194" x1="594.467" transform="translate(1158.283 1622.1)" fill="none" stroke="#fff" stroke-miterlimit="10" stroke-width="1"/>
        <line id="Line_195" data-name="Line 195" x1="594.467" transform="translate(1158.283 1628.944)" fill="none" stroke="#fff" stroke-miterlimit="10" stroke-width="1"/>
        <line id="Line_196" data-name="Line 196" x1="594.467" transform="translate(1158.283 1635.787)" fill="none" stroke="#fff" stroke-miterlimit="10" stroke-width="1"/>
        <line id="Line_197" data-name="Line 197" x1="594.467" transform="translate(1158.283 1642.631)" fill="none" stroke="#fff" stroke-miterlimit="10" stroke-width="1"/>
        <line id="Line_198" data-name="Line 198" x1="594.467" transform="translate(1158.283 1649.475)" fill="none" stroke="#fff" stroke-miterlimit="10" stroke-width="1"/>
        <line id="Line_199" data-name="Line 199" x1="594.467" transform="translate(1158.283 1656.319)" fill="none" stroke="#fff" stroke-miterlimit="10" stroke-width="1"/>
        <line id="Line_200" data-name="Line 200" x1="594.467" transform="translate(1158.283 1663.162)" fill="none" stroke="#fff" stroke-miterlimit="10" stroke-width="1"/>
        <line id="Line_201" data-name="Line 201" x1="594.467" transform="translate(1158.283 1670.006)" fill="none" stroke="#fff" stroke-miterlimit="10" stroke-width="1"/>
        <line id="Line_202" data-name="Line 202" x1="594.467" transform="translate(1158.283 1676.85)" fill="none" stroke="#fff" stroke-miterlimit="10" stroke-width="1"/>
        <line id="Line_203" data-name="Line 203" x1="594.467" transform="translate(1158.283 1683.694)" fill="none" stroke="#fff" stroke-miterlimit="10" stroke-width="1"/>
        <line id="Line_204" data-name="Line 204" x1="594.467" transform="translate(1158.283 1690.537)" fill="none" stroke="#fff" stroke-miterlimit="10" stroke-width="1"/>
        <line id="Line_205" data-name="Line 205" x1="594.467" transform="translate(1158.283 1697.381)" fill="none" stroke="#fff" stroke-miterlimit="10" stroke-width="1"/>
        <line id="Line_206" data-name="Line 206" x1="594.467" transform="translate(1158.283 1704.225)" fill="none" stroke="#fff" stroke-miterlimit="10" stroke-width="1"/>
        <line id="Line_207" data-name="Line 207" x1="594.467" transform="translate(1158.283 1711.069)" fill="none" stroke="#fff" stroke-miterlimit="10" stroke-width="1"/>
        <line id="Line_208" data-name="Line 208" x1="594.467" transform="translate(1158.283 1717.912)" fill="none" stroke="#fff" stroke-miterlimit="10" stroke-width="1"/>
        <line id="Line_209" data-name="Line 209" x1="594.467" transform="translate(1158.283 1724.756)" fill="none" stroke="#fff" stroke-miterlimit="10" stroke-width="1"/>
      </g>
      <path id="Path_3105" data-name="Path 3105" d="M1185.188,1560.506v143.719h540.656V1560.506ZM1281,1649.475h-68.437v-68.438H1281Z" fill="#fff" fill-rule="evenodd"/>
      <g id="Group_29" data-name="Group 29">
        <g id="Group_28" data-name="Group 28">
          <path id="Path_48" data-name="Path 48" d="M1212.563,1581.037v68.439H1281v-68.439Zm66.423,66.426h-64.411v-64.412h64.411Z" fill="#333"/>
        </g>
      </g>
      <g id="Group_43" data-name="Group 43">
        <g id="Group_39" data-name="Group 39">
          <path id="Path_62" data-name="Path 62" d="M1242.806,1630.8a36.22,36.22,0,0,0,6.754,3.843,17.28,17.28,0,0,0,5.64-2.679,18.624,18.624,0,0,0-2.1-2.571,13.954,13.954,0,0,0-5.155-3.1l-.282.282c-1.328,1.328-4.013-.014-8.054-4.055q-6.255-6.234-4.256-8.241l.282-.282a11.4,11.4,0,0,0-2.9-5.311,9.823,9.823,0,0,0-2.77-1.929,18.082,18.082,0,0,0-2.68,5.64,41.177,41.177,0,0,0,3.885,6.756,46.526,46.526,0,0,0,5.3,6.255,47.681,47.681,0,0,0,6.345,5.4m10.954-2.07a12.233,12.233,0,0,1,2.013,2.657l.626-.65a3.14,3.14,0,0,0,1.172-2.228,4.176,4.176,0,0,0-1.486-2.428c-2.657-2.657-4.935-3.014-6.884-1.072l-.613.615a12.2,12.2,0,0,1,5.155,3.1m-20.28-20.638a11.282,11.282,0,0,1,2.914,5.113l.5-.5a3.952,3.952,0,0,0,1.429-3.286,7.008,7.008,0,0,0-2.286-3.741,4.327,4.327,0,0,0-2.485-1.5,3.549,3.549,0,0,0-2.386,1.342l-.585.587a11.025,11.025,0,0,1,2.9,1.984" fill="#333"/>
        </g>
        <g id="Group_40" data-name="Group 40">
          <path id="Path_63" data-name="Path 63" d="M1264.374,1620.027a1.9,1.9,0,0,1-1.906-1.9v0a18.456,18.456,0,0,0-18.434-18.434,1.906,1.906,0,0,1-.209-3.807,1.811,1.811,0,0,1,.209,0,22.272,22.272,0,0,1,22.245,22.237,1.906,1.906,0,0,1-1.905,1.908h0Z" fill="#333"/>
        </g>
        <g id="Group_41" data-name="Group 41">
          <path id="Path_64" data-name="Path 64" d="M1258.4,1620.027a1.906,1.906,0,0,1-1.907-1.905v0a12.475,12.475,0,0,0-12.462-12.459,1.908,1.908,0,0,1-.1-3.814.854.854,0,0,1,.1,0,16.3,16.3,0,0,1,16.276,16.273,1.906,1.906,0,0,1-1.905,1.908Z" fill="#333"/>
        </g>
        <g id="Group_42" data-name="Group 42">
          <path id="Path_65" data-name="Path 65" d="M1252.1,1620.027a1.906,1.906,0,0,1-1.9-1.912,6.173,6.173,0,0,0-6.167-6.165,1.908,1.908,0,1,1-.1-3.814h.1a9.991,9.991,0,0,1,9.981,9.979,1.905,1.905,0,0,1-1.9,1.907h0Z" fill="#333"/>
        </g>
      </g>
      <text id="Give_us_a_call_Monday_to_Friday_8am_-_5pm_0845_601_3272" data-name="Give us a call
Monday to Friday, 8am - 5pm
0845 601 3272" transform="translate(1308.375 1606.759)" font-size="26" font-family="SourceSansPro-Light, Source Sans Pro" font-weight="300"><tspan x="0" y="0">Give us a call</tspan><tspan x="0" y="34">Monday to Friday, 8am - 5pm</tspan><tspan font-family="SourceSansPro-Semibold, Source Sans Pro" font-weight="600"><tspan x="0" y="68">0845 601 3272</tspan></tspan></text>
      <line id="Line_210" data-name="Line 210" x2="485.813" transform="translate(1212.563 1581.037)" fill="none" stroke="#0071ce" stroke-miterlimit="10" stroke-width="2"/>
      <line id="Line_211" data-name="Line 211" x2="390" transform="translate(1308.375 1615.256)" fill="none" stroke="#0071ce" stroke-miterlimit="10" stroke-width="2"/>
      <line id="Line_212" data-name="Line 212" x2="485.813" transform="translate(1212.563 1649.475)" fill="none" stroke="#0071ce" stroke-miterlimit="10" stroke-width="2"/>
      <line id="Line_213" data-name="Line 213" x2="485.813" transform="translate(1212.563 1683.694)" fill="none" stroke="#0071ce" stroke-miterlimit="10" stroke-width="2"/>
      <line id="Line_214" data-name="Line 214" y2="34.219" transform="translate(1773.563 1581.037)" fill="none" stroke="#0071ce" stroke-miterlimit="10" stroke-width="2"/>
      <line id="Line_215" data-name="Line 215" x2="7.875" transform="translate(1769.625 1581.037)" fill="none" stroke="#0071ce" stroke-miterlimit="10" stroke-width="2"/>
      <line id="Line_216" data-name="Line 216" x2="7.875" transform="translate(1769.625 1615.256)" fill="none" stroke="#0071ce" stroke-miterlimit="10" stroke-width="2"/>
      <line id="Line_217" data-name="Line 217" y2="34.219" transform="translate(1773.563 1615.256)" fill="none" stroke="#0071ce" stroke-miterlimit="10" stroke-width="2"/>
      <line id="Line_218" data-name="Line 218" x2="7.875" transform="translate(1769.625 1649.475)" fill="none" stroke="#0071ce" stroke-miterlimit="10" stroke-width="2"/>
      <line id="Line_219" data-name="Line 219" y2="34.219" transform="translate(1773.563 1649.474)" fill="none" stroke="#0071ce" stroke-miterlimit="10" stroke-width="2"/>
      <line id="Line_220" data-name="Line 220" x2="7.875" transform="translate(1769.625 1683.693)" fill="none" stroke="#0071ce" stroke-miterlimit="10" stroke-width="2"/>
      <line id="Line_221" data-name="Line 221" y2="7.875" transform="translate(1281 1514.678)" fill="none" stroke="#0071ce" stroke-miterlimit="10" stroke-width="2"/>
      <line id="Line_222" data-name="Line 222" x1="68.438" transform="translate(1212.563 1518.615)" fill="none" stroke="#0071ce" stroke-miterlimit="10" stroke-width="2"/>
      <line id="Line_223" data-name="Line 223" y2="7.875" transform="translate(1212.563 1514.678)" fill="none" stroke="#0071ce" stroke-miterlimit="10" stroke-width="2"/>
    </g>
    <text id="_40px" data-name="40px" transform="translate(131 7947)" fill="#333" font-size="16" font-family="SourceSansPro-Light, Source Sans Pro" font-weight="300"><tspan x="-15.176" y="0">40px</tspan></text>
    <text id="_20px" data-name="20px" transform="translate(684 8043)" fill="#333" font-size="16" font-family="SourceSansPro-Light, Source Sans Pro" font-weight="300"><tspan x="-15.176" y="0">20px</tspan></text>
    <text id="_20px-2" data-name="20px" transform="translate(684 8078)" fill="#333" font-size="16" font-family="SourceSansPro-Light, Source Sans Pro" font-weight="300"><tspan x="-15.176" y="0">20px</tspan></text>
    <text id="_20px-3" data-name="20px" transform="translate(684 8111)" fill="#333" font-size="16" font-family="SourceSansPro-Light, Source Sans Pro" font-weight="300"><tspan x="-15.176" y="0">20px</tspan></text>
  </g>
</svg>
