<svg xmlns="http://www.w3.org/2000/svg" width="217.341" height="217.341" viewBox="0 0 217.341 217.341">
  <g id="Group_4425" data-name="Group 4425" transform="translate(-41 -7272.659)">
    <g id="Rectangle_41" data-name="Rectangle 41" transform="translate(41 7272.659)" fill="#fff" stroke="#24a249" stroke-width="1">
      <rect width="217.341" height="217.341" stroke="none"/>
      <rect x="0.5" y="0.5" width="216.341" height="216.341" fill="none"/>
    </g>
    <g id="Group_217" data-name="Group 217" transform="translate(48.512 7279.321)">
      <ellipse id="Ellipse_3" data-name="Ellipse 3" cx="8.729" cy="8.729" rx="8.729" ry="8.729" fill="#24a249"/>
      <g id="Group_146" data-name="Group 146" transform="translate(4.367 4.852)">
        <path id="Path_92" data-name="Path 92" d="M9.674,14.219a.791.791,0,0,1-.584-.252l-2.1-2.207a.809.809,0,0,1,1.177-1.112l1.469,1.542L13.7,7.241a.813.813,0,1,1,1.258,1.031l-4.642,5.664a.846.846,0,0,1-.6.3.045.045,0,0,0-.041-.016Z" transform="translate(-6.763 -6.943)" fill="#fff"/>
      </g>
    </g>
    <rect id="Rectangle_43" data-name="Rectangle 43" width="217.341" height="10.825" transform="translate(41 7479.174)" fill="#24a249"/>
    <g id="Group_223" data-name="Group 223" transform="translate(4.687 128)">
      <g id="Group_225" data-name="Group 225" transform="translate(-642.187 5115.429)">
        <g id="Ellipse_14" data-name="Ellipse 14" transform="translate(829.161 2116.476)" fill="none" stroke="#003a5d" stroke-width="3">
          <circle cx="17" cy="17" r="17" stroke="none"/>
          <circle cx="17" cy="17" r="15.5" fill="none"/>
        </g>
        <g id="Group_46" data-name="Group 46" transform="translate(839.751 2124.893)">
          <g id="Group_44" data-name="Group 44" transform="translate(2.913)">
            <path id="Path_55" data-name="Path 55" d="M845.006,2129.885a4.016,4.016,0,1,1,3.56-3.99,3.8,3.8,0,0,1-3.56,3.99Zm0-6.5a2.551,2.551,0,1,0,2.076,2.507,2.326,2.326,0,0,0-2.076-2.507Z" transform="translate(-841.446 -2121.905)" fill="#003a5d"/>
          </g>
          <g id="Group_45" data-name="Group 45" transform="translate(0 8.997)">
            <path id="Path_56" data-name="Path 56" d="M849.356,2142.2H838.5a.744.744,0,0,1-.74-.691l-.239-3.5a3.521,3.521,0,0,1,2.185-3.244,12.546,12.546,0,0,1,8.434,0,3.507,3.507,0,0,1,2.19,3.249l-.237,3.5a.742.742,0,0,1-.74.692Zm-10.16-1.484h9.467l.191-2.808a2.031,2.031,0,0,0-1.217-1.753,11.086,11.086,0,0,0-7.42,0,2.043,2.043,0,0,0-1.212,1.751l.191,2.808Z" transform="translate(-837.519 -2134.036)" fill="#003a5d"/>
          </g>
        </g>
      </g>
      <text id="Myself" transform="translate(177.313 7259.025)" fill="#003a5d" font-size="31" font-family="SourceSansPro-Semibold, Source Sans Pro" font-weight="600"><tspan x="-85.746" y="0">Myself</tspan></text>
    </g>
  </g>
</svg>
