<svg xmlns="http://www.w3.org/2000/svg" width="217.346" height="217.341" viewBox="0 0 217.346 217.341">
  <g id="Group_4429" data-name="Group 4429" transform="translate(-274.996 -7272.659)">
    <g id="Rectangle_42" data-name="Rectangle 42" transform="translate(275 7272.659)" fill="#fff" stroke="#24a249" stroke-width="1">
      <rect width="217.341" height="217.341" stroke="none"/>
      <rect x="0.5" y="0.5" width="216.341" height="216.341" fill="none"/>
    </g>
    <g id="Group_224" data-name="Group 224" transform="translate(282.512 7279.321)">
      <ellipse id="Ellipse_3" data-name="Ellipse 3" cx="8.729" cy="8.729" rx="8.729" ry="8.729" fill="#24a249"/>
      <g id="Group_146" data-name="Group 146" transform="translate(4.367 4.852)">
        <path id="Path_92" data-name="Path 92" d="M9.674,14.219a.791.791,0,0,1-.584-.252l-2.1-2.207a.809.809,0,0,1,1.177-1.112l1.469,1.542L13.7,7.241a.813.813,0,1,1,1.258,1.031l-4.642,5.664a.846.846,0,0,1-.6.3.045.045,0,0,0-.041-.016Z" transform="translate(-6.763 -6.943)" fill="#fff"/>
      </g>
    </g>
    <rect id="Rectangle_44" data-name="Rectangle 44" width="217.341" height="10.825" transform="translate(274.996 7479.174)" fill="#24a249"/>
    <g id="Group_226" data-name="Group 226" transform="translate(227.687 128)">
      <g id="Group_225" data-name="Group 225" transform="translate(-642.187 5115.429)">
        <circle id="Ellipse_14" data-name="Ellipse 14" cx="17" cy="17" r="17" transform="translate(829.161 2116.476)" fill="#8dc6e8"/>
        <path id="Path_54" data-name="Path 54" d="M838.053,2141.636a5.852,5.852,0,0,1,.346-3.623,3.74,3.74,0,0,1,.451-.786,3.406,3.406,0,0,1,.863-.768,4.415,4.415,0,0,1,.927-.451,8.767,8.767,0,0,1,1.4-.326,24.058,24.058,0,0,1,3.809-.457.957.957,0,0,1,.329.035.863.863,0,0,1,.33.243,4.308,4.308,0,0,1,.973,1.833,9.758,9.758,0,0,1,.283,2.074,1.713,1.713,0,0,1-.277,1.254,1.259,1.259,0,0,1-.507.32,4.325,4.325,0,0,1-1.552.184c-.579,0-1.159-.016-1.737.009a27.353,27.353,0,0,0-3.38.43l-1.575.268" transform="translate(2.131 -0.452)" fill="#fff"/>
        <ellipse id="Ellipse_15" data-name="Ellipse 15" cx="2.017" cy="2.712" rx="2.017" ry="2.712" transform="translate(843.735 2126.198)" fill="#fff"/>
        <g id="Group_46" data-name="Group 46" transform="translate(839.751 2124.893)">
          <g id="Group_44" data-name="Group 44" transform="translate(2.913)">
            <path id="Path_55" data-name="Path 55" d="M845.006,2129.885a4.016,4.016,0,1,1,3.56-3.99,3.8,3.8,0,0,1-3.56,3.99Zm0-6.5a2.551,2.551,0,1,0,2.076,2.507,2.326,2.326,0,0,0-2.076-2.507Z" transform="translate(-841.446 -2121.905)" fill="#003a5d"/>
          </g>
          <g id="Group_45" data-name="Group 45" transform="translate(0 8.997)">
            <path id="Path_56" data-name="Path 56" d="M849.356,2142.2H838.5a.744.744,0,0,1-.74-.691l-.239-3.5a3.521,3.521,0,0,1,2.185-3.244,12.546,12.546,0,0,1,8.434,0,3.507,3.507,0,0,1,2.19,3.249l-.237,3.5a.742.742,0,0,1-.74.692Zm-10.16-1.484h9.467l.191-2.808a2.031,2.031,0,0,0-1.217-1.753,11.086,11.086,0,0,0-7.42,0,2.043,2.043,0,0,0-1.212,1.751l.191,2.808Z" transform="translate(-837.519 -2134.036)" fill="#003a5d"/>
          </g>
        </g>
      </g>
      <text id="Myself" transform="translate(177.313 7259.025)" fill="#003a5d" font-size="31" font-family="SourceSansPro-Semibold, Source Sans Pro" font-weight="600"><tspan x="-85.746" y="0">Myself</tspan></text>
    </g>
  </g>
</svg>
