<svg xmlns="http://www.w3.org/2000/svg" width="689" height="403" viewBox="0 0 689 403">
  <g id="Group_4422" data-name="Group 4422" transform="translate(-41 -5883)">
    <rect id="Rectangle_32" data-name="Rectangle 32" width="689" height="125" transform="translate(41 5883)" fill="#dee3eb"/>
    <rect id="Rectangle_33" data-name="Rectangle 33" width="689" height="278" transform="translate(41 6008)" fill="#003a5d"/>
    <g id="Group_61" data-name="Group 61" transform="translate(-7 137)">
      <text id="_16px" data-name="16px" transform="translate(129 5831)" fill="#333" font-size="16" font-family="SourceSansPro-Light, Source Sans Pro" font-weight="300"><tspan x="-15.176" y="0">16px</tspan></text>
      <g id="Group_60" data-name="Group 60" transform="translate(-221.598 5088.653)">
        <path id="Path_2" data-name="Path 2" d="M357.51,711.674l-.213-.981-1.595-7.346h-2.794l-3.221,5.733c.451.209.893.447,1.328.682.282.152.559.3.836.442l1.955-3.578,1,4.766c-2.449.324-4.563-2.041-7.029-2.462a6.084,6.084,0,0,0-5.18,1.772,5.376,5.376,0,0,1,4.6.327c2.624,1.432,5.44,3.377,8.134,2.843,1.126-.226,2.521-.641,2.521-.641Z" transform="translate(0 0)" fill="#333"/>
        <path id="Path_3" data-name="Path 3" d="M356.1,737.13l-2.612,4.577h2.868s1.567-2.763,1.911-3.394c-.7-.352-1.4-.75-2.1-1.143Z" transform="translate(-8.068 -25.021)" fill="#333"/>
        <path id="Path_4" data-name="Path 4" d="M394.547,743.215c-.162.048-1.464.429-2.521.641l.514,2.357h2.666Z" transform="translate(-36.608 -29.527)" fill="#333"/>
      </g>
    </g>
    <g id="Group_62" data-name="Group 62" transform="translate(123 137)">
      <text id="_20px" data-name="20px" transform="translate(129 5831)" fill="#333" font-size="16" font-family="SourceSansPro-Light, Source Sans Pro" font-weight="300"><tspan x="-15.176" y="0">20px</tspan></text>
      <g id="Group_60-2" data-name="Group 60" transform="translate(-223.598 5085.653)">
        <path id="Path_2-2" data-name="Path 2" d="M361.238,713.756l-.266-1.226-1.993-9.182h-3.492l-4.026,7.167c.564.261,1.116.559,1.66.853.352.19.7.377,1.045.552l2.444-4.472,1.25,5.957c-3.062.405-5.7-2.552-8.786-3.077a7.605,7.605,0,0,0-6.475,2.215,6.719,6.719,0,0,1,5.744.408c3.28,1.79,6.8,4.221,10.168,3.554,1.408-.282,3.151-.8,3.151-.8Z" transform="translate(0 0)" fill="#333"/>
        <path id="Path_3-2" data-name="Path 3" d="M356.757,737.13l-3.265,5.721h3.585s1.959-3.454,2.389-4.242c-.881-.441-1.756-.938-2.621-1.428Z" transform="translate(-7.362 -22.83)" fill="#333"/>
        <path id="Path_4-2" data-name="Path 4" d="M395.177,743.215c-.2.06-1.83.536-3.151.8l.642,2.946H396Z" transform="translate(-33.403 -26.942)" fill="#333"/>
      </g>
    </g>
    <g id="Group_63" data-name="Group 63" transform="translate(253 137)">
      <text id="_24px" data-name="24px" transform="translate(129 5831)" fill="#333" font-size="16" font-family="SourceSansPro-Light, Source Sans Pro" font-weight="300"><tspan x="-15.176" y="0">24px</tspan></text>
      <g id="Group_60-3" data-name="Group 60" transform="translate(-225.598 5082.653)">
        <path id="Path_2-3" data-name="Path 2" d="M364.966,715.837l-.319-1.471-2.392-11.019h-4.191l-4.832,8.6c.677.313,1.339.67,1.992,1.023.422.228.839.453,1.254.663l2.932-5.366,1.5,7.149c-3.674.486-6.844-3.062-10.543-3.692a9.127,9.127,0,0,0-7.77,2.658,8.064,8.064,0,0,1,6.893.49c3.937,2.148,8.16,5.065,12.2,4.265,1.689-.339,3.781-.962,3.781-.962Z" transform="translate(0 0)" fill="#333"/>
        <path id="Path_3-3" data-name="Path 3" d="M357.409,737.13,353.492,744h4.3s2.351-4.145,2.867-5.091c-1.057-.529-2.107-1.125-3.145-1.714Z" transform="translate(-6.656 -20.639)" fill="#333"/>
        <path id="Path_4-3" data-name="Path 4" d="M395.808,743.215c-.243.072-2.2.643-3.782.962l.77,3.536h4Z" transform="translate(-30.198 -24.357)" fill="#333"/>
      </g>
    </g>
    <g id="Group_64" data-name="Group 64" transform="translate(384 137)">
      <text id="_32px" data-name="32px" transform="translate(129 5831)" fill="#333" font-size="16" font-family="SourceSansPro-Light, Source Sans Pro" font-weight="300"><tspan x="-15.176" y="0">32px</tspan></text>
      <g id="Group_60-4" data-name="Group 60" transform="translate(-229.598 5077.653)">
        <path id="Path_2-4" data-name="Path 2" d="M372.422,720,372,718.039l-3.189-14.692h-5.588l-6.442,11.466c.9.418,1.786.894,2.656,1.364.563.3,1.119.6,1.672.884l3.91-7.155,2,9.531c-4.9.648-9.126-4.083-14.058-4.923-5.721-.974-9.735,2.9-10.359,3.545a10.751,10.751,0,0,1,9.19.654c5.249,2.864,10.88,6.754,16.268,5.687,2.252-.452,5.041-1.283,5.041-1.283Z" transform="translate(0 0)" fill="#333"/>
        <path id="Path_3-4" data-name="Path 3" d="M358.715,737.13l-5.223,9.153h5.736s3.135-5.527,3.823-6.787c-1.41-.7-2.809-1.5-4.193-2.285Z" transform="translate(-5.243 -16.258)" fill="#333"/>
        <path id="Path_4-4" data-name="Path 4" d="M397.068,743.215c-.324.1-2.927.857-5.042,1.282l1.027,4.714h5.332Z" transform="translate(-23.787 -19.187)" fill="#333"/>
      </g>
    </g>
    <g id="Group_210" data-name="Group 210" transform="translate(516 137)">
      <text id="_36px" data-name="36px" transform="translate(129 5831)" fill="#333" font-size="16" font-family="SourceSansPro-Light, Source Sans Pro" font-weight="300"><tspan x="-15.176" y="0">36px</tspan></text>
      <g id="Group_60-5" data-name="Group 60" transform="translate(-231.598 5075.653)">
        <path id="Path_2-5" data-name="Path 2" d="M376.15,722.083l-.479-2.207-3.588-16.529H365.8l-7.248,12.9c1.015.47,2.009,1.006,2.988,1.535.634.342,1.259.679,1.881.994l4.4-8.05,2.25,10.723c-5.511.729-10.267-4.593-15.815-5.539-6.436-1.1-10.952,3.26-11.654,3.988a12.1,12.1,0,0,1,10.339.735c5.9,3.221,12.24,7.6,18.3,6.4,2.534-.508,5.671-1.443,5.671-1.443Z" transform="translate(0 0)" fill="#333"/>
        <path id="Path_3-5" data-name="Path 3" d="M359.368,737.13l-5.876,10.3h6.453s3.527-6.218,4.3-7.636c-1.586-.793-3.16-1.688-4.717-2.571Z" transform="translate(-4.536 -14.068)" fill="#333"/>
        <path id="Path_4-5" data-name="Path 4" d="M397.7,743.215c-.365.108-3.293.965-5.673,1.443l1.155,5.3h6Z" transform="translate(-20.582 -16.601)" fill="#333"/>
      </g>
    </g>
    <text id="Source_Sans_14pt" data-name="Source Sans 14pt" transform="translate(135 6081.858)" fill="#fff" font-size="34" font-family="SourceSansPro-Semibold, Source Sans Pro" font-weight="600"><tspan x="0" y="0">Source Sans 14pt</tspan></text>
    <text id="Source_Sans_16pt" data-name="Source Sans 16pt" transform="translate(135 6154.112)" fill="#fff" font-size="39" font-family="SourceSansPro-Semibold, Source Sans Pro" font-weight="600"><tspan x="0" y="0">Source Sans 16pt</tspan></text>
    <text id="Source_Sans_20pt" data-name="Source Sans 20pt" transform="translate(135 6232.21)" fill="#fff" font-size="49" font-family="SourceSansPro-Semibold, Source Sans Pro" font-weight="600"><tspan x="0" y="0">Source Sans 20pt</tspan></text>
    <line id="Line_26" data-name="Line 26" x2="648.927" transform="translate(60.5 6059.5)" fill="none" stroke="#dee3eb" stroke-width="0.5"/>
    <line id="Line_27" data-name="Line 27" x2="648.927" transform="translate(60.5 6128.5)" fill="none" stroke="#dee3eb" stroke-width="0.5"/>
    <line id="Line_32" data-name="Line 32" x2="648.927" transform="translate(60.5 6199.5)" fill="none" stroke="#dee3eb" stroke-width="0.5"/>
    <line id="Line_26-2" data-name="Line 26" x2="648.927" transform="translate(60.5 6070.749)" fill="none" stroke="#dee3eb" stroke-width="0.5"/>
    <line id="Line_28" data-name="Line 28" x2="648.927" transform="translate(60.5 6141.384)" fill="none" stroke="#dee3eb" stroke-width="0.5"/>
    <line id="Line_30" data-name="Line 30" x2="648.927" transform="translate(60.5 6215.964)" fill="none" stroke="#dee3eb" stroke-width="0.5"/>
    <line id="Line_26-3" data-name="Line 26" x2="648.927" transform="translate(60.5 6081.999)" fill="none" stroke="#dee3eb" stroke-width="0.5"/>
    <line id="Line_29" data-name="Line 29" x2="648.927" transform="translate(60.5 6154.268)" fill="none" stroke="#dee3eb" stroke-width="0.5"/>
    <line id="Line_31" data-name="Line 31" x2="648.927" transform="translate(60.5 6232.43)" fill="none" stroke="#dee3eb" stroke-width="0.5"/>
    <g id="Group_207" data-name="Group 207" transform="translate(404.021 6053)">
      <g id="Ellipse_3" data-name="Ellipse 3" fill="none" stroke="#fff" stroke-width="3">
        <circle cx="17.989" cy="17.989" r="17.989" stroke="none"/>
        <circle cx="17.989" cy="17.989" r="16.489" fill="none"/>
      </g>
      <g id="Group_146" data-name="Group 146" transform="translate(9 10)">
        <path id="Path_92" data-name="Path 92" d="M12.761,21.939a1.631,1.631,0,0,1-1.2-.518L7.226,16.872a1.668,1.668,0,0,1,2.425-2.291l3.027,3.177,8.378-10.2a1.676,1.676,0,1,1,2.592,2.124L14.082,21.353a1.744,1.744,0,0,1-1.237.619.092.092,0,0,0-.084-.033Z" transform="translate(-6.763 -6.943)" fill="#fff"/>
      </g>
    </g>
    <g id="Group_208" data-name="Group 208" transform="translate(438.834 6121.082)">
      <g id="Ellipse_3-2" data-name="Ellipse 3" fill="none" stroke="#fff" stroke-width="3">
        <ellipse cx="20.581" cy="20.581" rx="20.581" ry="20.581" stroke="none"/>
        <ellipse cx="20.581" cy="20.581" rx="19.081" ry="19.081" fill="none"/>
      </g>
      <g id="Group_146-2" data-name="Group 146" transform="translate(10.296 11.441)">
        <path id="Path_92-2" data-name="Path 92" d="M13.625,24.1a1.866,1.866,0,0,1-1.378-.593L7.293,18.3a1.908,1.908,0,0,1,2.774-2.621l3.463,3.635L23.115,7.645a1.917,1.917,0,1,1,2.965,2.43L15.137,23.429a2,2,0,0,1-1.416.708.105.105,0,0,0-.1-.038Z" transform="translate(-6.763 -6.943)" fill="#fff"/>
      </g>
    </g>
    <g id="Group_209" data-name="Group 209" transform="translate(513.072 6190.051)">
      <g id="Ellipse_3-3" data-name="Ellipse 3" fill="none" stroke="#fff" stroke-width="3">
        <ellipse cx="26.297" cy="26.297" rx="26.297" ry="26.297" stroke="none"/>
        <ellipse cx="26.297" cy="26.297" rx="24.797" ry="24.797" fill="none"/>
      </g>
      <g id="Group_146-3" data-name="Group 146" transform="translate(13.156 14.618)">
        <path id="Path_92-3" data-name="Path 92" d="M15.531,28.864a2.384,2.384,0,0,1-1.76-.758L7.439,21.457a2.438,2.438,0,0,1,3.545-3.349l4.425,4.645L27.656,7.841a2.449,2.449,0,1,1,3.789,3.1L17.462,28.009a2.55,2.55,0,0,1-1.809.9.135.135,0,0,0-.122-.049Z" transform="translate(-6.763 -6.943)" fill="#fff"/>
      </g>
    </g>
  </g>
</svg>
