<svg xmlns="http://www.w3.org/2000/svg" width="261" height="261" viewBox="0 0 261 261">
  <g id="Group_4424" data-name="Group 4424" transform="translate(-322 -6354)">
    <g id="Rectangle_36" data-name="Rectangle 36" transform="translate(322 6354)" fill="#fff" stroke="#b94a48" stroke-width="1">
      <rect width="261" height="261" stroke="none"/>
      <rect x="0.5" y="0.5" width="260" height="260" fill="none"/>
    </g>
    <rect id="Rectangle_37" data-name="Rectangle 37" width="261" height="13" transform="translate(322 6602)" fill="#b94a48"/>
    <g id="Group_212" data-name="Group 212" transform="translate(331 6362)">
      <circle id="Ellipse_3" data-name="Ellipse 3" cx="10.482" cy="10.482" r="10.482" fill="#b94a48"/>
      <g id="Group_213" data-name="Group 213" transform="translate(10.47 3.984) rotate(45)">
        <g id="Group_76" data-name="Group 76" transform="translate(3.661)">
          <path id="Path_50" data-name="Path 50" d="M11.7,16.012a.932.932,0,0,1-.929-.929V7.769a.929.929,0,1,1,1.859,0v7.323a.924.924,0,0,1-.929.92Z" transform="translate(-10.77 -6.84)" fill="#fff"/>
        </g>
        <g id="Group_77" data-name="Group 77" transform="translate(0 3.661)">
          <path id="Path_51" data-name="Path 51" d="M15.082,12.639H7.759a.929.929,0,1,1,0-1.859h7.323a.929.929,0,1,1,0,1.859Z" transform="translate(-6.83 -10.78)" fill="#fff"/>
        </g>
      </g>
    </g>
    <text id="Go_Back" data-name="Go Back" transform="translate(486 6492.112)" fill="#003a5d" font-size="39" font-family="SourceSansPro-Semibold, Source Sans Pro" font-weight="600"><tspan x="-135.486" y="0">Go Back</tspan></text>
    <g id="Group_211" data-name="Group 211" transform="translate(553.666 6507.999) rotate(180)">
      <g id="Group_91" data-name="Group 91">
        <path id="Path_60" data-name="Path 60" d="M28.417,56.834A28.417,28.417,0,1,1,56.834,28.417,28.45,28.45,0,0,1,28.417,56.834Zm0-51.8A23.383,23.383,0,1,0,51.8,28.417,23.418,23.418,0,0,0,28.417,5.034Z" fill="#003a5d"/>
      </g>
      <g id="Group_94" data-name="Group 94" transform="translate(14.045 16.153)">
        <g id="Group_92" data-name="Group 92" transform="translate(10.364)">
          <path id="Path_61" data-name="Path 61" d="M12.221,30.94a2.578,2.578,0,0,1-1.787-.73,2.507,2.507,0,0,1,0-3.549l7.954-7.954-7.954-7.979a2.537,2.537,0,0,1,0-3.574,2.507,2.507,0,0,1,3.549,0l9.741,9.741a2.507,2.507,0,0,1,0,3.549l-9.741,9.741a2.4,2.4,0,0,1-1.762.755Z" transform="translate(-9.697 -6.418)" fill="#003a5d"/>
        </g>
        <g id="Group_93" data-name="Group 93" transform="translate(0 9.747)">
          <path id="Path_62" data-name="Path 62" d="M25.565,15.324H8.1a2.517,2.517,0,1,1,0-5.034H25.54a2.524,2.524,0,0,1,2.517,2.517,2.487,2.487,0,0,1-2.492,2.517Z" transform="translate(-5.58 -10.29)" fill="#003a5d"/>
        </g>
      </g>
    </g>
  </g>
</svg>
