<svg xmlns="http://www.w3.org/2000/svg" width="217.5" height="217.341" viewBox="0 0 217.5 217.341">
  <g id="Group_4426" data-name="Group 4426" transform="translate(-512 -7272.659)">
    <g id="Rectangle_45" data-name="Rectangle 45" transform="translate(512 7272.659)" fill="#fff" stroke="#b94a48" stroke-width="1">
      <rect width="217.341" height="217.341" stroke="none"/>
      <rect x="0.5" y="0.5" width="216.341" height="216.341" fill="none"/>
    </g>
    <g id="Group_222" data-name="Group 222" transform="translate(519.653 7279.321)">
      <ellipse id="Ellipse_3" data-name="Ellipse 3" cx="8.729" cy="8.729" rx="8.729" ry="8.729" fill="#b94a48"/>
      <g id="Group_213" data-name="Group 213" transform="translate(8.718 3.318) rotate(45)">
        <g id="Group_76" data-name="Group 76" transform="translate(3.049 0)">
          <path id="Path_50" data-name="Path 50" d="M.774,7.638A.776.776,0,0,1,0,6.864V.774a.774.774,0,1,1,1.548,0v6.1a.77.77,0,0,1-.774.766Z" fill="#fff"/>
        </g>
        <g id="Group_77" data-name="Group 77" transform="translate(0 3.049)">
          <path id="Path_51" data-name="Path 51" d="M6.872,1.548H.774A.774.774,0,1,1,.774,0h6.1a.774.774,0,1,1,0,1.548Z" fill="#fff"/>
        </g>
      </g>
    </g>
    <rect id="Rectangle_46" data-name="Rectangle 46" width="217.341" height="10.825" transform="translate(512.159 7479.174)" fill="#b94a48"/>
    <g id="Group_227" data-name="Group 227" transform="translate(464.687 128)">
      <g id="Group_225" data-name="Group 225" transform="translate(-642.187 5115.429)">
        <g id="Ellipse_14" data-name="Ellipse 14" transform="translate(829.161 2116.476)" fill="none" stroke="#8dc6e8" stroke-width="3">
          <circle cx="17" cy="17" r="17" stroke="none"/>
          <circle cx="17" cy="17" r="15.5" fill="none"/>
        </g>
        <g id="Group_46" data-name="Group 46" transform="translate(839.751 2124.893)">
          <g id="Group_44" data-name="Group 44" transform="translate(2.913)">
            <path id="Path_55" data-name="Path 55" d="M845.006,2129.885a4.016,4.016,0,1,1,3.56-3.99,3.8,3.8,0,0,1-3.56,3.99Zm0-6.5a2.551,2.551,0,1,0,2.076,2.507,2.326,2.326,0,0,0-2.076-2.507Z" transform="translate(-841.446 -2121.905)" fill="#8dc6e8"/>
          </g>
          <g id="Group_45" data-name="Group 45" transform="translate(0 8.997)">
            <path id="Path_56" data-name="Path 56" d="M849.356,2142.2H838.5a.744.744,0,0,1-.74-.691l-.239-3.5a3.521,3.521,0,0,1,2.185-3.244,12.546,12.546,0,0,1,8.434,0,3.507,3.507,0,0,1,2.19,3.249l-.237,3.5a.742.742,0,0,1-.74.692Zm-10.16-1.484h9.467l.191-2.808a2.031,2.031,0,0,0-1.217-1.753,11.086,11.086,0,0,0-7.42,0,2.043,2.043,0,0,0-1.212,1.751l.191,2.808Z" transform="translate(-837.519 -2134.036)" fill="#8dc6e8"/>
          </g>
        </g>
      </g>
      <text id="Myself" transform="translate(177.313 7259.025)" fill="#003a5d" font-size="31" font-family="SourceSansPro-Semibold, Source Sans Pro" font-weight="600"><tspan x="-85.746" y="0">Myself</tspan></text>
    </g>
  </g>
</svg>
