<svg xmlns="http://www.w3.org/2000/svg" width="341" height="163" viewBox="0 0 341 163">
  <g id="Group_4425" data-name="Group 4425" transform="translate(-388 -35488)">
    <rect id="Rectangle_410" data-name="Rectangle 410" width="163" height="163" transform="translate(388 35488)" fill="#dee3eb"/>
    <rect id="Rectangle_412" data-name="Rectangle 412" width="163" height="163" transform="translate(566 35488)" fill="#dee3eb"/>
    <rect id="Rectangle_411" data-name="Rectangle 411" width="83" height="83" transform="translate(428 35528)" fill="#003a5d"/>
    <rect id="Rectangle_413" data-name="Rectangle 413" width="83" height="83" transform="translate(647.5 35510.813) rotate(45)" fill="#003a5d"/>
    <g id="Group_4218" data-name="Group 4218" transform="translate(15941.398 15674.957) rotate(39)">
      <path id="Path_3167" data-name="Path 3167" d="M-.08.568c17.99-6.456,14.174,12.3,14.174,12.3" transform="translate(493.183 25133.559) rotate(-45)" fill="none" stroke="#333" stroke-width="4"/>
      <path id="Path_3168" data-name="Path 3168" d="M3.3,2.49.55,9.544l-6.6-4.979Z" transform="translate(517.619 25133.182) rotate(90)" fill="#333"/>
    </g>
    <g id="Group_4219" data-name="Group 4219" transform="translate(-16991.855 53742.68) rotate(-135)">
      <path id="Path_3167-2" data-name="Path 3167" d="M-.08.568c17.99-6.456,14.174,12.3,14.174,12.3" transform="translate(493.183 25133.559) rotate(-45)" fill="none" stroke="#333" stroke-width="4"/>
      <path id="Path_3168-2" data-name="Path 3168" d="M3.3,2.49.55,9.544l-6.6-4.979Z" transform="translate(517.619 25133.182) rotate(90)" fill="#333"/>
    </g>
  </g>
</svg>
