<svg xmlns="http://www.w3.org/2000/svg" xmlns:xlink="http://www.w3.org/1999/xlink" width="689" height="782" viewBox="0 0 689 782">
  <defs>
    <filter id="Rectangle_218" x="12" y="21" width="432" height="716" filterUnits="userSpaceOnUse">
      <feOffset dy="-3" input="SourceAlpha"/>
      <feGaussianBlur stdDeviation="3" result="blur"/>
      <feFlood flood-opacity="0.161"/>
      <feComposite operator="in" in2="blur"/>
      <feComposite in="SourceGraphic"/>
    </filter>
    <filter id="Rectangle_117" x="18" y="140.979" width="420.119" height="46" filterUnits="userSpaceOnUse">
      <feOffset dy="3" input="SourceAlpha"/>
      <feGaussianBlur stdDeviation="1" result="blur-2"/>
      <feFlood flood-opacity="0.302"/>
      <feComposite operator="in" in2="blur-2"/>
      <feComposite in="SourceGraphic"/>
    </filter>
  </defs>
  <g id="Group_4429" data-name="Group 4429" transform="translate(-40 -7030)">
    <rect id="Rectangle_195" data-name="Rectangle 195" width="689" height="731" transform="translate(40 7030)" fill="#dee3eb"/>
    <text id="_12px" data-name="12px" transform="translate(548 7565)" fill="#24a249" font-size="16" font-family="Gotham-Bold, Gotham" font-weight="700"><tspan x="0" y="0">12px</tspan></text>
    <text id="_12px-2" data-name="12px" transform="translate(548 7654)" fill="#24a249" font-size="16" font-family="Gotham-Bold, Gotham" font-weight="700"><tspan x="0" y="0">12px</tspan></text>
    <g id="Group_3952" data-name="Group 3952" transform="translate(49)">
      <g id="Group_3924" data-name="Group 3924" transform="translate(120 884)">
        <rect id="Rectangle_194" data-name="Rectangle 194" width="25" height="25" transform="translate(40 6903)" fill="#76236c"/>
        <text id="_36px" data-name="36px" transform="translate(72 6921)" fill="#333" font-size="16" font-family="Gotham-Bold, Gotham" font-weight="700"><tspan x="0" y="0">36px</tspan></text>
      </g>
      <g id="Group_3923" data-name="Group 3923" transform="translate(214 884)">
        <rect id="Rectangle_194-2" data-name="Rectangle 194" width="25" height="25" transform="translate(40 6903)" fill="#00a0af"/>
        <text id="_24px" data-name="24px" transform="translate(72 6921)" fill="#333" font-size="16" font-family="Gotham-Bold, Gotham" font-weight="700"><tspan x="0" y="0">24px</tspan></text>
      </g>
      <g id="Group_3922" data-name="Group 3922" transform="translate(308 884)">
        <rect id="Rectangle_194-3" data-name="Rectangle 194" width="25" height="25" transform="translate(40 6903)" fill="#ee5f5b"/>
        <text id="_20px" data-name="20px" transform="translate(72 6921)" fill="#333" font-size="16" font-family="Gotham-Bold, Gotham" font-weight="700"><tspan x="0" y="0">20px</tspan></text>
      </g>
      <g id="Group_3921" data-name="Group 3921" transform="translate(402 884)">
        <rect id="Rectangle_194-4" data-name="Rectangle 194" width="25" height="25" transform="translate(40 6903)" fill="#00db33"/>
        <text id="_12px-3" data-name="12px" transform="translate(72 6921)" fill="#333" font-size="16" font-family="Gotham-Bold, Gotham" font-weight="700"><tspan x="0" y="0">12px</tspan></text>
      </g>
    </g>
    <g id="Group_3905" data-name="Group 3905" transform="translate(2643 186)">
      <g transform="matrix(1, 0, 0, 1, -2603, 6844)" filter="url(#Rectangle_218)">
        <rect id="Rectangle_218-2" data-name="Rectangle 218" width="414" height="698" transform="translate(21 33)" fill="#fff"/>
      </g>
      <g id="Header" transform="translate(-2585 6877)">
        <g transform="matrix(1, 0, 0, 1, -18, -33)" filter="url(#Rectangle_117)">
          <rect id="Rectangle_117-2" data-name="Rectangle 117" width="414.119" height="40" transform="translate(21 140.98)" fill="#003a5d"/>
        </g>
        <text id="Find_your_Attends" data-name="Find your Attends" transform="translate(246.448 115.599)" fill="#fff" font-size="20" font-family="SourceSansPro-Semibold, Source Sans Pro" font-weight="600"><tspan x="1.067" y="20">Find your Attends</tspan></text>
        <text id="Menu" transform="translate(42.363 115.599)" fill="#fff" font-size="20" font-family="SourceSansPro-Semibold, Source Sans Pro" font-weight="600"><tspan x="8.173" y="20">Menu</tspan></text>
        <rect id="Rectangle_118" data-name="Rectangle 118" width="414.119" height="107.979" transform="translate(3)" fill="#fff"/>
        <g id="Group_157" data-name="Group 157" transform="translate(20.309 36)">
          <path id="Path_407" data-name="Path 407" d="M65.673,75.024l4.13-21.38H66.165l1.1-5.652h3.638l1.705-8.748h6.512l-1.681,8.748h3.884L80.27,53.644H76.338l-4.177,21.38Z" transform="translate(-20.309 -39.244)" fill="#003a5d"/>
          <path id="Path_408" data-name="Path 408" d="M82.236,75.024l4.128-21.38H82.726l1.107-5.652h3.636l1.706-8.748h6.512l-1.681,8.748h3.883l-1.057,5.652H92.9l-4.178,21.38Z" transform="translate(-20.309 -39.244)" fill="#003a5d"/>
          <path id="Path_409" data-name="Path 409" d="M124.7,66.545a14.56,14.56,0,0,1-5.382,6.814,14.776,14.776,0,0,1-8.4,2.377A12.556,12.556,0,0,1,97.888,62.687a15.609,15.609,0,0,1,1.377-6.475,15.971,15.971,0,0,1,3.906-5.345,13.581,13.581,0,0,1,4.4-2.653,15.04,15.04,0,0,1,5.259-.91,12.83,12.83,0,0,1,9.436,3.63,12.61,12.61,0,0,1,3.662,9.364q0,.714-.074,1.588c-.048.583-.131,1.227-.245,1.931H104.229a7.7,7.7,0,0,0,2.359,4.493,6.778,6.778,0,0,0,4.6,1.527,8.045,8.045,0,0,0,3.65-.816,8.69,8.69,0,0,0,2.936-2.476Zm-19.806-8.012h14.695a7.034,7.034,0,0,0-2.579-3.949,7.617,7.617,0,0,0-4.67-1.407,7.539,7.539,0,0,0-4.508,1.42A8.359,8.359,0,0,0,104.892,58.533Z" transform="translate(-20.309 -39.244)" fill="#003a5d"/>
          <path id="Path_410" data-name="Path 410" d="M137.515,47.992l-.564,2.58a10.842,10.842,0,0,1,3.281-2.273,9.166,9.166,0,0,1,3.673-.75q4.866,0,7.336,2.212t2.47,6.587a20.1,20.1,0,0,1-.234,2.494q-.235,1.683-.676,3.894l-2.359,12.288h-6.488l2.752-14.277q.173-.836.271-1.672a13.963,13.963,0,0,0,.1-1.622,4.507,4.507,0,0,0-1.081-3.256,4.18,4.18,0,0,0-3.145-1.118,6.072,6.072,0,0,0-4.768,2.015,13.328,13.328,0,0,0-2.631,6.34l-2.775,13.59h-6.243l5.48-27.032Z" transform="translate(-20.309 -39.244)" fill="#003a5d"/>
          <path id="Path_411" data-name="Path 411" d="M174.99,75.024l.345-1.868a9.279,9.279,0,0,1-3.121,1.941,10.964,10.964,0,0,1-3.833.639,11.967,11.967,0,0,1-9.093-3.674,13.39,13.39,0,0,1-3.49-9.619,15.275,15.275,0,0,1,.75-4.794,16.508,16.508,0,0,1,2.273-4.423,13.76,13.76,0,0,1,5.026-4.325,14.391,14.391,0,0,1,6.548-1.5,11.973,11.973,0,0,1,4.99,1.033,11.624,11.624,0,0,1,4.029,3.047l2.311-12.238h6.338l-6.88,35.78Zm-4.324-21.945a8.064,8.064,0,0,0-6.071,2.715,9.22,9.22,0,0,0-2.555,6.55,7.577,7.577,0,0,0,1.954,5.43,6.757,6.757,0,0,0,5.147,2.063,7.844,7.844,0,0,0,6.035-2.715,9.585,9.585,0,0,0,2.469-6.7,7.33,7.33,0,0,0-1.978-5.284A6.637,6.637,0,0,0,170.666,53.079Z" transform="translate(-20.309 -39.244)" fill="#003a5d"/>
          <path id="Path_412" data-name="Path 412" d="M186.019,66.127h6.388v.148a4.112,4.112,0,0,0,.824,2.739,2.848,2.848,0,0,0,2.3.972,2.627,2.627,0,0,0,1.9-.725,2.439,2.439,0,0,0,.75-1.831,2.613,2.613,0,0,0-.591-1.658,8.217,8.217,0,0,0-2.014-1.66q-.762-.516-2.088-1.326a16.925,16.925,0,0,1-2.95-2.113,7.706,7.706,0,0,1-1.461-2.286,6.675,6.675,0,0,1-.456-2.481,7.943,7.943,0,0,1,2.629-6.058,9.3,9.3,0,0,1,6.587-2.446,8.491,8.491,0,0,1,6.107,2.236,7.714,7.714,0,0,1,2.347,5.848v.42l-6.39-.026a3.861,3.861,0,0,0-.65-2.272,2.042,2.042,0,0,0-1.709-.776,2.464,2.464,0,0,0-1.721.652,2.043,2.043,0,0,0-.712,1.56q0,1.428,3.17,3.369l.836.514a15.984,15.984,0,0,1,4.46,3.734,6.653,6.653,0,0,1,1.266,4.007,8.639,8.639,0,0,1-2.679,6.476,9.29,9.29,0,0,1-6.733,2.592,9.86,9.86,0,0,1-6.931-2.322,8.2,8.2,0,0,1-2.531-6.353c0-.081.009-.229.025-.442S186.019,66.243,186.019,66.127Z" transform="translate(-20.309 -39.244)" fill="#003a5d"/>
          <g id="Group_156" data-name="Group 156" transform="translate(185.984)">
            <path id="Path_413" data-name="Path 413" d="M206.293,42.472v-.018a3.191,3.191,0,1,1,6.382-.018v.018a3.191,3.191,0,1,1-6.382.018Zm6.014-.018v-.018a2.824,2.824,0,1,0-5.647.018v.018a2.824,2.824,0,1,0,5.647-.018Zm-4.143-1.723h1.558c.772,0,1.34.347,1.34,1.1a1.021,1.021,0,0,1-.735,1.027l.844,1.191H210.2L209.483,43h-.512V44.05h-.807Zm1.5,1.613c.366,0,.567-.183.567-.458,0-.3-.219-.459-.567-.459h-.7v.917Z" transform="translate(-206.293 -39.244)" fill="#003a5d"/>
          </g>
          <path id="Path_414" data-name="Path 414" d="M60.308,61.579h0l-.571-2.631h0l-4.276-19.7H47.966L39.325,54.622c1.211.56,2.4,1.2,3.563,1.83.755.407,1.5.809,2.242,1.185l5.244-9.6,2.683,12.783c-6.57.87-12.24-5.475-18.854-6.6-7.673-1.306-13.056,3.887-13.894,4.754a14.418,14.418,0,0,1,12.326.877c7.039,3.841,14.592,9.058,21.819,7.627,3.021-.607,6.761-1.721,6.761-1.721Z" transform="translate(-20.309 -39.244)" fill="#003a5d"/>
          <path id="Path_415" data-name="Path 415" d="M34.894,62.748,27.889,75.024h7.692s4.2-7.413,5.127-9.1c-1.891-.946-3.768-2.012-5.624-3.065Z" transform="translate(-20.309 -39.244)" fill="#003a5d"/>
          <path id="Path_416" data-name="Path 416" d="M61.461,66.981c-.436.129-3.927,1.15-6.763,1.719l1.377,6.324h7.152Z" transform="translate(-20.309 -39.244)" fill="#003a5d"/>
        </g>
        <g id="Group_161" data-name="Group 161" transform="translate(20.385 117.979)">
          <g id="Group_158" data-name="Group 158">
            <rect id="Rectangle_119" data-name="Rectangle 119" width="21.979" height="3.516" fill="#fff"/>
          </g>
          <g id="Group_159" data-name="Group 159" transform="translate(0 8.242)">
            <rect id="Rectangle_120" data-name="Rectangle 120" width="21.979" height="3.516" fill="#fff"/>
          </g>
          <g id="Group_160" data-name="Group 160" transform="translate(0 16.484)">
            <rect id="Rectangle_121" data-name="Rectangle 121" width="21.979" height="3.516" fill="#fff"/>
          </g>
        </g>
        <g id="Group_167" data-name="Group 167" transform="translate(243.375 20.671)">
          <rect id="Rectangle_57" data-name="Rectangle 57" width="15" height="15" transform="translate(82.571 19.329)" fill="#333"/>
          <g id="Group_96" data-name="Group 96" transform="translate(62.88 21.747)">
            <g id="Group_89" data-name="Group 89" transform="translate(3.965 16.387)">
              <path id="Path_151" data-name="Path 151" d="M1459.2,73a3.905,3.905,0,1,1,3.9-3.9,3.909,3.909,0,0,1-3.9,3.9Zm0-5.417a1.512,1.512,0,1,0,1.512,1.512,1.514,1.514,0,0,0-1.512-1.512Z" transform="translate(-1455.29 -65.186)" fill="#333"/>
            </g>
            <g id="Group_90" data-name="Group 90" transform="translate(17.399 16.387)">
              <path id="Path_152" data-name="Path 152" d="M1472.629,73a3.905,3.905,0,1,1,3.906-3.9,3.91,3.91,0,0,1-3.906,3.9Zm0-5.417a1.512,1.512,0,1,0,1.513,1.512,1.513,1.513,0,0,0-1.513-1.512Z" transform="translate(-1468.724 -65.186)" fill="#333"/>
            </g>
            <g id="Group_91" data-name="Group 91" transform="translate(9.766 19.095)">
              <path id="Path_153" data-name="Path 153" d="M1469.921,70.288h-7.634a1.2,1.2,0,0,1,0-2.394h7.634a1.2,1.2,0,0,1,0,2.394Z" transform="translate(-1461.091 -67.894)" fill="#333"/>
            </g>
            <g id="Group_92" data-name="Group 92">
              <path id="Path_154" data-name="Path 154" d="M1459.625,67.5a1.2,1.2,0,0,1-1.142-1.551l.67-2.162-3.926-11.777-3.034-.865a1.2,1.2,0,0,1,.657-2.3l3.641,1.039a1.2,1.2,0,0,1,.807.773l4.246,12.741a1.2,1.2,0,0,1,.01.732l-.786,2.529a1.2,1.2,0,0,1-1.143.843Z" transform="translate(-1451.325 -48.799)" fill="#333"/>
            </g>
            <g id="Group_93" data-name="Group 93" transform="translate(4.941 4.361)">
              <path id="Path_155" data-name="Path 155" d="M1475.663,64.971h-15.252a1.2,1.2,0,0,1-1.143-.839l-2.947-9.418a1.2,1.2,0,0,1,1.143-1.554h21.522a1.2,1.2,0,0,1,1.153,1.525l-2.422,8.467a2.021,2.021,0,0,1-2.054,1.819Zm-14.373-2.393h14.1l2.007-7.025H1459.09l2.2,7.025Z" transform="translate(-1456.266 -53.16)" fill="#333"/>
            </g>
            <g id="Group_94" data-name="Group 94" transform="translate(9.385 8.083)">
              <path id="Path_156" data-name="Path 156" d="M1475.284,58.078h-13.976a.6.6,0,1,1,0-1.2h13.976a.6.6,0,1,1,0,1.2Z" transform="translate(-1460.71 -56.882)" fill="#333"/>
            </g>
            <g id="Group_95" data-name="Group 95" transform="translate(10.36 11.117)">
              <path id="Path_157" data-name="Path 157" d="M1474.363,61.112h-12.08a.6.6,0,0,1,0-1.2h12.08a.6.6,0,1,1,0,1.2Z" transform="translate(-1461.685 -59.916)" fill="#333"/>
            </g>
          </g>
          <g id="Group_99" data-name="Group 99" transform="translate(0 19.754)">
            <g id="Group_97" data-name="Group 97">
              <path id="Path_158" data-name="Path 158" d="M1402.533,74.99a14.093,14.093,0,1,1,9.968-4.129,14,14,0,0,1-9.968,4.129Zm0-25.791a11.7,11.7,0,1,0,8.274,3.425,11.623,11.623,0,0,0-8.274-3.425Z" transform="translate(-1388.445 -46.806)" fill="#333"/>
            </g>
            <g id="Group_98" data-name="Group 98" transform="translate(2.885 5.075)">
              <path id="Path_159" data-name="Path 159" d="M1402.533,74.99h0a14,14,0,0,1-9.963-4.126c-.346-.35-.669-.707-.973-1.079a1.2,1.2,0,0,1-.112-1.346,3.209,3.209,0,0,1,1.276-1.286,22.557,22.557,0,0,1,5.827-1.853,2.734,2.734,0,0,1-.958-1.721c-.017-.157-.033-.315-.052-.475a1.633,1.633,0,0,1-.876-1.286l-.243-2.332A1.64,1.64,0,0,1,1397,58.1l-.06-.6a4.567,4.567,0,0,1,1.241-4.068,6.893,6.893,0,0,1,8.755.037,4.551,4.551,0,0,1,1.2,4.02l-.065.61a1.624,1.624,0,0,1,.537,1.388l-.243,2.331a1.617,1.617,0,0,1-.876,1.29l-.058.5a2.681,2.681,0,0,1-.947,1.7,22.435,22.435,0,0,1,5.78,1.833,3.222,3.222,0,0,1,1.32,1.313,1.192,1.192,0,0,1-.114,1.341,14.112,14.112,0,0,1-10.938,5.2Zm-8.323-5.871.056.056a11.7,11.7,0,0,0,16.543-.006c.016-.017.035-.034.051-.05a20.121,20.121,0,0,0-5.9-1.624,1.2,1.2,0,0,1-1.043-1.358l.239-1.641a1.193,1.193,0,0,1,.535-.829,1.046,1.046,0,0,0,.374-.371l.171-1.489a1.2,1.2,0,0,1,.815-.994l.017-.006.088-.849a.762.762,0,0,1-.065-.04,1.2,1.2,0,0,1-.51-1.13l.176-1.524a2.315,2.315,0,0,0-.456-2.048,4.54,4.54,0,0,0-5.485-.038,2.313,2.313,0,0,0-.5,2.092l.171,1.525a1.194,1.194,0,0,1-.521,1.128.562.562,0,0,1-.054.035l.086.849.021.006a1.2,1.2,0,0,1,.816.994c.061.511.117,1.018.173,1.53a1.677,1.677,0,0,0,.367.326,1.2,1.2,0,0,1,.545.842l.229,1.627a1.2,1.2,0,0,1-1.043,1.363,20.2,20.2,0,0,0-5.9,1.624Z" transform="translate(-1391.329 -51.881)" fill="#333"/>
            </g>
          </g>
          <text id="_0" data-name="0" transform="translate(86.446 30.454)" fill="#f0f0f0" font-size="10" font-family="SourceSansPro-Bold, Source Sans Pro" font-weight="700"><tspan x="0" y="0">0</tspan></text>
          <g id="Group_106" data-name="Group 106" transform="translate(125.964 23.138)">
            <path id="Rectangle_58" data-name="Rectangle 58" d="M1.424,0H29.167a1.424,1.424,0,0,1,1.424,1.424V19.979A1.423,1.423,0,0,1,29.168,21.4H1.424A1.424,1.424,0,0,1,0,19.978V1.424A1.424,1.424,0,0,1,1.424,0Z" transform="translate(0 0)" fill="#e7e6e6"/>
            <g id="Group_104" data-name="Group 104">
              <path id="Path_163" data-name="Path 163" d="M1514.409,70.168a1.425,1.425,0,0,0,1.424,1.424h27.743A1.425,1.425,0,0,0,1545,70.168v-.233h-30.591Z" transform="translate(-1514.409 -50.19)" fill="#d92429"/>
              <rect id="Rectangle_59" data-name="Rectangle 59" width="30.591" height="1.655" transform="translate(0 16.449)" fill="#d92429"/>
              <rect id="Rectangle_60" data-name="Rectangle 60" width="30.591" height="1.653" transform="translate(0 13.153)" fill="#d92429"/>
              <rect id="Rectangle_61" data-name="Rectangle 61" width="30.591" height="1.655" transform="translate(0 9.857)" fill="#d92429"/>
              <rect id="Rectangle_62" data-name="Rectangle 62" width="30.591" height="1.656" transform="translate(0 6.56)" fill="#d92429"/>
              <rect id="Rectangle_63" data-name="Rectangle 63" width="30.591" height="1.655" transform="translate(0 3.264)" fill="#d92429"/>
              <path id="Path_164" data-name="Path 164" d="M1545,51.613a1.424,1.424,0,0,0-1.424-1.423h-27.743a1.424,1.424,0,0,0-1.424,1.423v.233H1545Z" transform="translate(-1514.409 -50.19)" fill="#d92429"/>
            </g>
            <path id="Path_165" data-name="Path 165" d="M1530.392,50.19H1515.83a1.424,1.424,0,0,0-1.421,1.423v10.1h15.983Z" transform="translate(-1514.409 -50.19)" fill="#086db5"/>
            <g id="Group_105" data-name="Group 105" transform="translate(0.446 0.259)">
              <path id="Path_166" data-name="Path 166" d="M1515.485,50.449l.156.469h.479l-.387.291.145.476-.393-.291-.388.291.151-.476-.393-.291h.48Z" transform="translate(-1514.855 -50.449)" fill="#ececee"/>
              <path id="Path_167" data-name="Path 167" d="M1518.116,50.449l.15.469h.485l-.387.291.151.476-.4-.291-.382.291.15-.476-.393-.291h.48Z" transform="translate(-1514.855 -50.449)" fill="#ececee"/>
              <path id="Path_168" data-name="Path 168" d="M1520.874,50.449l.146.469h.479l-.388.291.151.476-.387-.291-.393.291.145-.476-.387-.291h.485Z" transform="translate(-1514.855 -50.449)" fill="#ececee"/>
              <path id="Path_169" data-name="Path 169" d="M1523.621,50.449l.151.469h.479l-.394.291.151.476-.388-.291-.393.291.144-.476-.381-.291h.48Z" transform="translate(-1514.855 -50.449)" fill="#ececee"/>
              <path id="Path_170" data-name="Path 170" d="M1526.368,50.449l.145.469H1527l-.394.291.145.476-.388-.291-.393.291.151-.476-.393-.291h.486Z" transform="translate(-1514.855 -50.449)" fill="#ececee"/>
              <path id="Path_171" data-name="Path 171" d="M1516.751,51.742l.146.473h.485l-.394.291.15.475-.388-.291-.393.291.151-.475-.4-.291h.492Z" transform="translate(-1514.855 -50.449)" fill="#ececee"/>
              <path id="Path_172" data-name="Path 172" d="M1519.382,51.742l.151.473h.481l-.388.291.15.475-.393-.291-.393.291.151-.475-.393-.291h.486Z" transform="translate(-1514.855 -50.449)" fill="#ececee"/>
              <path id="Path_173" data-name="Path 173" d="M1522.13,51.742l.15.473h.485l-.394.291.151.475-.393-.291-.394.291.156-.475-.4-.291h.485Z" transform="translate(-1514.855 -50.449)" fill="#ececee"/>
              <path id="Path_174" data-name="Path 174" d="M1524.876,51.742l.15.473h.486l-.393.291.15.475-.393-.291-.387.291.15-.475-.393-.291h.479Z" transform="translate(-1514.855 -50.449)" fill="#ececee"/>
              <path id="Path_175" data-name="Path 175" d="M1527.628,51.742l.144.473h.486l-.387.291.145.475-.388-.291-.393.291.15-.475-.388-.291h.48Z" transform="translate(-1514.855 -50.449)" fill="#ececee"/>
              <path id="Path_176" data-name="Path 176" d="M1516.751,54.1l.146.47h.485l-.394.294.15.472-.388-.29-.393.29.151-.472-.4-.294h.492Z" transform="translate(-1514.855 -50.449)" fill="#ececee"/>
              <path id="Path_177" data-name="Path 177" d="M1519.382,54.1l.151.47h.481l-.388.294.15.472-.393-.29-.393.29.151-.472-.393-.294h.486Z" transform="translate(-1514.855 -50.449)" fill="#ececee"/>
              <path id="Path_178" data-name="Path 178" d="M1522.13,54.1l.15.47h.485l-.394.294.151.472-.393-.29-.394.29.156-.472-.4-.294h.485Z" transform="translate(-1514.855 -50.449)" fill="#ececee"/>
              <path id="Path_179" data-name="Path 179" d="M1524.876,54.1l.15.47h.486l-.393.294.15.472-.393-.29-.387.29.15-.472-.393-.294h.479Z" transform="translate(-1514.855 -50.449)" fill="#ececee"/>
              <path id="Path_180" data-name="Path 180" d="M1527.628,54.1l.144.47h.486l-.387.294.145.472-.388-.29-.393.29.15-.472-.388-.294h.48Z" transform="translate(-1514.855 -50.449)" fill="#ececee"/>
              <path id="Path_181" data-name="Path 181" d="M1516.751,56.453l.146.473h.485l-.394.294.15.466-.388-.294-.393.294.151-.466-.4-.294h.492Z" transform="translate(-1514.855 -50.449)" fill="#ececee"/>
              <path id="Path_182" data-name="Path 182" d="M1519.382,56.453l.151.473h.481l-.388.294.15.466-.393-.294-.393.294.151-.466-.393-.294h.486Z" transform="translate(-1514.855 -50.449)" fill="#ececee"/>
              <path id="Path_183" data-name="Path 183" d="M1522.13,56.453l.15.473h.485l-.394.294.151.466-.393-.294-.394.294.156-.466-.4-.294h.485Z" transform="translate(-1514.855 -50.449)" fill="#ececee"/>
              <path id="Path_184" data-name="Path 184" d="M1524.876,56.453l.15.473h.486l-.393.294.15.466-.393-.294-.387.294.15-.466-.393-.294h.479Z" transform="translate(-1514.855 -50.449)" fill="#ececee"/>
              <path id="Path_185" data-name="Path 185" d="M1527.628,56.453l.144.473h.486l-.387.294.145.466-.388-.294-.393.294.15-.466-.388-.294h.48Z" transform="translate(-1514.855 -50.449)" fill="#ececee"/>
              <path id="Path_186" data-name="Path 186" d="M1516.751,58.807l.146.469h.485l-.394.3.15.472-.388-.291-.393.291.151-.472-.4-.3h.492Z" transform="translate(-1514.855 -50.449)" fill="#ececee"/>
              <path id="Path_187" data-name="Path 187" d="M1519.382,58.807l.151.469h.481l-.388.3.15.472-.393-.291-.393.291.151-.472-.393-.3h.486Z" transform="translate(-1514.855 -50.449)" fill="#ececee"/>
              <path id="Path_188" data-name="Path 188" d="M1522.13,58.807l.15.469h.485l-.394.3.151.472-.393-.291-.394.291.156-.472-.4-.3h.485Z" transform="translate(-1514.855 -50.449)" fill="#ececee"/>
              <path id="Path_189" data-name="Path 189" d="M1524.876,58.807l.15.469h.486l-.393.3.15.472-.393-.291-.387.291.15-.472-.393-.3h.479Z" transform="translate(-1514.855 -50.449)" fill="#ececee"/>
              <path id="Path_190" data-name="Path 190" d="M1527.628,58.807l.144.469h.486l-.387.3.145.472-.388-.291-.393.291.15-.472-.388-.3h.48Z" transform="translate(-1514.855 -50.449)" fill="#ececee"/>
              <path id="Path_191" data-name="Path 191" d="M1529.114,50.449l.15.469h.48l-.388.291.151.476-.394-.291-.393.291.151-.476-.388-.291h.479Z" transform="translate(-1514.855 -50.449)" fill="#ececee"/>
              <path id="Path_192" data-name="Path 192" d="M1515.485,52.8l.156.476h.479l-.387.288.145.473-.393-.292-.388.292.151-.473-.393-.288h.48Z" transform="translate(-1514.855 -50.449)" fill="#ececee"/>
              <path id="Path_193" data-name="Path 193" d="M1518.116,52.8l.15.476h.485l-.387.288.151.473-.4-.292-.382.292.15-.473-.393-.288h.48Z" transform="translate(-1514.855 -50.449)" fill="#ececee"/>
              <path id="Path_194" data-name="Path 194" d="M1520.874,52.8l.146.476h.479l-.388.288.151.473-.387-.292-.393.292.145-.473-.387-.288h.485Z" transform="translate(-1514.855 -50.449)" fill="#ececee"/>
              <path id="Path_195" data-name="Path 195" d="M1523.621,52.8l.151.476h.479l-.394.288.151.473-.388-.292-.393.292.144-.473-.381-.288h.48Z" transform="translate(-1514.855 -50.449)" fill="#ececee"/>
              <path id="Path_196" data-name="Path 196" d="M1526.368,52.8l.145.476H1527l-.394.288.145.473-.388-.292-.393.292.151-.473-.393-.288h.486Z" transform="translate(-1514.855 -50.449)" fill="#ececee"/>
              <path id="Path_197" data-name="Path 197" d="M1529.114,52.8l.15.476h.48l-.388.288.151.473-.394-.292-.393.292.151-.473-.388-.288h.479Z" transform="translate(-1514.855 -50.449)" fill="#ececee"/>
              <path id="Path_198" data-name="Path 198" d="M1515.485,55.157l.156.47h.479l-.387.295.145.472-.393-.294-.388.294.151-.472-.393-.295h.48Z" transform="translate(-1514.855 -50.449)" fill="#ececee"/>
              <path id="Path_199" data-name="Path 199" d="M1518.116,55.157l.15.47h.485l-.387.295.151.472-.4-.294-.382.294.15-.472-.393-.295h.48Z" transform="translate(-1514.855 -50.449)" fill="#ececee"/>
              <path id="Path_200" data-name="Path 200" d="M1520.874,55.157l.146.47h.479l-.388.295.151.472-.387-.294-.393.294.145-.472-.387-.295h.485Z" transform="translate(-1514.855 -50.449)" fill="#ececee"/>
              <path id="Path_201" data-name="Path 201" d="M1523.621,55.157l.151.47h.479l-.394.295.151.472-.388-.294-.393.294.144-.472-.381-.295h.48Z" transform="translate(-1514.855 -50.449)" fill="#ececee"/>
              <path id="Path_202" data-name="Path 202" d="M1526.368,55.157l.145.47H1527l-.394.295.145.472-.388-.294-.393.294.151-.472-.393-.295h.486Z" transform="translate(-1514.855 -50.449)" fill="#ececee"/>
              <path id="Path_203" data-name="Path 203" d="M1529.114,55.157l.15.47h.48l-.388.295.151.472-.394-.294-.393.294.151-.472-.388-.295h.479Z" transform="translate(-1514.855 -50.449)" fill="#ececee"/>
              <path id="Path_204" data-name="Path 204" d="M1515.485,57.514l.156.473h.479l-.387.288.145.472-.393-.29-.388.29.151-.472-.393-.288h.48Z" transform="translate(-1514.855 -50.449)" fill="#ececee"/>
              <path id="Path_205" data-name="Path 205" d="M1518.116,57.514l.15.473h.485l-.387.288.151.472-.4-.29-.382.29.15-.472-.393-.288h.48Z" transform="translate(-1514.855 -50.449)" fill="#ececee"/>
              <path id="Path_206" data-name="Path 206" d="M1520.874,57.514l.146.473h.479l-.388.288.151.472-.387-.29-.393.29.145-.472-.387-.288h.485Z" transform="translate(-1514.855 -50.449)" fill="#ececee"/>
              <path id="Path_207" data-name="Path 207" d="M1523.621,57.514l.151.473h.479l-.394.288.151.472-.388-.29-.393.29.144-.472-.381-.288h.48Z" transform="translate(-1514.855 -50.449)" fill="#ececee"/>
              <path id="Path_208" data-name="Path 208" d="M1526.368,57.514l.145.473H1527l-.394.288.145.472-.388-.29-.393.29.151-.472-.393-.288h.486Z" transform="translate(-1514.855 -50.449)" fill="#ececee"/>
              <path id="Path_209" data-name="Path 209" d="M1529.114,57.514l.15.473h.48l-.388.288.151.472-.394-.29-.393.29.151-.472-.388-.288h.479Z" transform="translate(-1514.855 -50.449)" fill="#ececee"/>
              <path id="Path_210" data-name="Path 210" d="M1515.485,59.863l.156.478h.479l-.387.289.145.472-.393-.292-.388.292.151-.472-.393-.289h.48Z" transform="translate(-1514.855 -50.449)" fill="#ececee"/>
              <path id="Path_211" data-name="Path 211" d="M1518.116,59.863l.15.478h.485l-.387.289.151.472-.4-.292-.382.292.15-.472-.393-.289h.48Z" transform="translate(-1514.855 -50.449)" fill="#ececee"/>
              <path id="Path_212" data-name="Path 212" d="M1520.874,59.863l.146.478h.479l-.388.289.151.472-.387-.292-.393.292.145-.472-.387-.289h.485Z" transform="translate(-1514.855 -50.449)" fill="#ececee"/>
              <path id="Path_213" data-name="Path 213" d="M1523.621,59.863l.151.478h.479l-.394.289.151.472-.388-.292-.393.292.144-.472-.381-.289h.48Z" transform="translate(-1514.855 -50.449)" fill="#ececee"/>
              <path id="Path_214" data-name="Path 214" d="M1526.368,59.863l.145.478H1527l-.394.289.145.472-.388-.292-.393.292.151-.472-.393-.289h.486Z" transform="translate(-1514.855 -50.449)" fill="#ececee"/>
              <path id="Path_215" data-name="Path 215" d="M1529.114,59.863l.15.478h.48l-.388.289.151.472-.394-.292-.393.292.151-.472-.388-.289h.479Z" transform="translate(-1514.855 -50.449)" fill="#ececee"/>
            </g>
          </g>
        </g>
      </g>
      <text id="How_can_we_help_you_" data-name="How can we help you?" transform="translate(-2565 7038.888)" fill="#333" font-size="36" font-family="SourceSansPro-Semibold, Source Sans Pro" font-weight="600"><tspan x="0" y="35">How can we help you?</tspan></text>
      <text id="Do_you_have_any_questions_Please_do_not_hesitate_to_contact_us._If_your_question_has_already_been_asked_you_may_find_the_answer_on_our_Frequently_Asked_Questions_page." data-name="Do you have any questions? Please do not hesitate to contact us. If your question has already been asked you may find the answer on our Frequently Asked Questions page." transform="translate(-2563 7092.142)" fill="#333" font-size="16" font-family="SourceSansPro-Light, Source Sans Pro" font-weight="300"><tspan x="0" y="16">Do you have any questions? Please do not hesitate to </tspan><tspan x="0" y="40">contact us. If your question has already been asked you </tspan><tspan x="0" y="64">may find the answer on our </tspan><tspan y="64" fill="#004a98" font-family="SourceSansPro-Semibold, Source Sans Pro" font-weight="600">Frequently Asked Questions</tspan><tspan y="64"> </tspan><tspan x="0" y="88">page.</tspan></text>
      <g id="Group_3920" data-name="Group 3920" transform="translate(-6.5 -17)">
        <rect id="Rectangle_16" data-name="Rectangle 16" width="380" height="54.29" rx="3" transform="translate(-2558.5 7330.629)" fill="#fff" stroke="#76777a" stroke-width="1"/>
        <text id="First_Name_" data-name="First Name *" transform="translate(-2543 7363.203)" fill="#76777a" font-size="16" font-family="SourceSansPro-Light, Source Sans Pro" font-weight="300"><tspan x="0" y="0">First Name *</tspan></text>
        <text id="First_Name_2" data-name="First Name *" transform="translate(-2558 7324.203)" fill="#333" font-size="20" font-family="SourceSansPro-Semibold, Source Sans Pro" font-weight="600"><tspan x="0" y="0">First Name *</tspan></text>
        <rect id="Rectangle_17" data-name="Rectangle 17" width="380" height="54.29" rx="3" transform="translate(-2558.5 7508.992)" fill="#fff" stroke="#76777a" stroke-width="1"/>
        <text id="Email_" data-name="Email *" transform="translate(-2543 7541.566)" fill="#76777a" font-size="16" font-family="SourceSansPro-Light, Source Sans Pro" font-weight="300"><tspan x="0" y="0">Email *</tspan></text>
        <text id="Email_2" data-name="Email *" transform="translate(-2558 7502.566)" fill="#333" font-size="20" font-family="SourceSansPro-Semibold, Source Sans Pro" font-weight="600"><tspan x="0" y="0">Email *</tspan></text>
        <rect id="Rectangle_213" data-name="Rectangle 213" width="380" height="54.29" rx="3" transform="translate(-2558.5 7419.629)" fill="#fff" stroke="#76777a" stroke-width="1"/>
        <text id="Last_Name_" data-name="Last Name *" transform="translate(-2543 7452.203)" fill="#76777a" font-size="16" font-family="SourceSansPro-Light, Source Sans Pro" font-weight="300"><tspan x="0" y="0">Last Name *</tspan></text>
        <text id="Last_Name_2" data-name="Last Name *" transform="translate(-2558 7413.203)" fill="#333" font-size="20" font-family="SourceSansPro-Semibold, Source Sans Pro" font-weight="600"><tspan x="0" y="0">Last Name *</tspan></text>
        <rect id="Rectangle_21" data-name="Rectangle 21" width="380" height="54.29" rx="3" transform="translate(-2558.5 7240.266)" fill="#fff" stroke="#76777a" stroke-width="1"/>
        <text id="Title_" data-name="Title *" transform="translate(-2543 7272.84)" fill="#76777a" font-size="16" font-family="SourceSansPro-Light, Source Sans Pro" font-weight="300"><tspan x="0" y="0">Title *</tspan></text>
        <text id="Title_2" data-name="Title *" transform="translate(-2558 7233.84)" fill="#333" font-size="20" font-family="SourceSansPro-Semibold, Source Sans Pro" font-weight="600"><tspan x="0" y="0">Title *</tspan></text>
        <line id="Line_1" data-name="Line 1" y1="38.003" transform="translate(-2222.806 7247.73)" fill="none" stroke="#76777a" stroke-miterlimit="10" stroke-width="1.357"/>
        <path id="Path_79" data-name="Path 79" d="M707.586,1092.187l-5.362-5.362-.85.85,6.212,6.212,6.212-6.212-.85-.85Z" transform="translate(-2908.998 6177)" fill="#76777a" stroke="#76777a" stroke-width="1"/>
        <rect id="Rectangle_229" data-name="Rectangle 229" width="151" height="20" transform="translate(-2406.5 7327) rotate(180)" fill="#ee5f5b" opacity="0.5"/>
        <rect id="Rectangle_231" data-name="Rectangle 231" width="151" height="20" transform="translate(-2406.5 7417) rotate(180)" fill="#ee5f5b" opacity="0.5"/>
        <rect id="Rectangle_233" data-name="Rectangle 233" width="151" height="20" transform="translate(-2406.5 7506) rotate(180)" fill="#ee5f5b" opacity="0.5"/>
        <rect id="Rectangle_230" data-name="Rectangle 230" width="332.539" height="12" transform="translate(-2427.952 7295)" fill="#00db33"/>
        <rect id="Rectangle_232" data-name="Rectangle 232" width="332.539" height="12" transform="translate(-2427.952 7385)" fill="#00db33"/>
        <rect id="Rectangle_234" data-name="Rectangle 234" width="332.539" height="12" transform="translate(-2427.952 7474)" fill="#00db33"/>
        <rect id="Rectangle_235" data-name="Rectangle 235" width="151" height="20" transform="translate(-2407.5 7236) rotate(180)" fill="#ee5f5b" opacity="0.5"/>
      </g>
      <rect id="Rectangle_225" data-name="Rectangle 225" width="142.452" height="24" transform="translate(-2219.452 7094)" fill="#00a0af" opacity="0.5"/>
      <rect id="Rectangle_223" data-name="Rectangle 223" width="442.452" height="36" transform="translate(-2565.452 7046)" fill="#76236c" opacity="0.5"/>
    </g>
    <text id="_12px-4" data-name="12px" transform="translate(548 7476)" fill="#24a249" font-size="16" font-family="Gotham-Bold, Gotham" font-weight="700"><tspan x="0" y="0">12px</tspan></text>
    <text id="_20px-2" data-name="20px" transform="translate(237 7401)" fill="#b94a48" font-size="16" font-family="Gotham-Bold, Gotham" font-weight="700"><tspan x="0" y="0">20px</tspan></text>
    <text id="_36px-2" data-name="36px" transform="translate(531 7259)" fill="#76236c" font-size="16" font-family="Gotham-Bold, Gotham" font-weight="700"><tspan x="0" y="0">36px</tspan></text>
    <text id="_24px-2" data-name="24px" transform="translate(571 7297)" fill="#00a0af" font-size="16" font-family="Gotham-Bold, Gotham" font-weight="700"><tspan x="0" y="0">24px</tspan></text>
    <text id="_20px-3" data-name="20px" transform="translate(237 7492)" fill="#b94a48" font-size="16" font-family="Gotham-Bold, Gotham" font-weight="700"><tspan x="0" y="0">20px</tspan></text>
    <text id="_20px-4" data-name="20px" transform="translate(237 7583)" fill="#b94a48" font-size="16" font-family="Gotham-Bold, Gotham" font-weight="700"><tspan x="0" y="0">20px</tspan></text>
    <text id="_20px-5" data-name="20px" transform="translate(237 7672)" fill="#b94a48" font-size="16" font-family="Gotham-Bold, Gotham" font-weight="700"><tspan x="0" y="0">20px</tspan></text>
  </g>
</svg>
