<svg id="Layer_1" data-name="Layer 1" xmlns="http://www.w3.org/2000/svg" viewBox="0 0 647.66 341.53"><defs><style>.cls-1{fill:#619f42;}</style></defs><title>dcoe-logo</title><g id="Layer_2" data-name="Layer 2"><g id="Layer_1-2" data-name="Layer 1-2"><path class="cls-1" d="M285.18,280.26c0-7.3,5.34-13.55,12.59-13.55,6.78,0,11,5,11,11.79,0,7.74-5.48,13.39-12.75,13.39C289.38,291.88,285.18,286.89,285.18,280.26Z" transform="translate(-82.09 -54.62)"/><path d="M404.7,176.52l-16.43,86.15a220.9,220.9,0,0,0-3.55,27.6H368.59l1.29-13.39h-.32c-6.08,10-15.17,15-24.35,15-13.22,0-21.91-10.81-21.91-27.6,0-27.43,18.55-54.21,45.82-54.21a25.79,25.79,0,0,1,10.81,2.25l6.79-35.82ZM377.11,227c-1.94-1.76-5.33-2.89-9.36-2.89-15.16,0-25.82,20.48-25.82,37.26,0,9,3.07,15.83,10.95,15.83,7.42,0,16.13-8.39,19.2-23.24Z" transform="translate(-82.09 -54.62)"/><path d="M402.6,290.27l15-78.61h18.08l-15,78.57Zm18.08-99.55a11,11,0,0,1,10.78-11.12h0c5.81,0,9.52,4.18,9.36,9.83a10.67,10.67,0,0,1-10.21,11.13h-.92C424.07,200.56,420.52,196.52,420.68,190.72Z" transform="translate(-82.09 -54.62)"/><path d="M443.41,304.78c4.2,2.58,11.94,4.36,18.39,4.36,11.95,0,20.18-6.45,23.72-23.07l1.94-9.36h-.32c-6.3,9.36-13.88,13.39-22.74,13.39-14,0-21.79-11.77-21.92-26.14-.17-25.65,17-53.88,48.57-53.88a61.5,61.5,0,0,1,25,5.16l-12.27,65.51c-2.74,15.33-7.09,27.11-15.15,34.09-7.59,6.62-17.75,8.71-27.6,8.71-8.88,0-17.59-1.93-22.1-4.67Zm52.92-78.9a20.75,20.75,0,0,0-8.87-1.62c-15.65,0-26.14,19.85-26.3,36,0,8.06,2.58,15.64,10.8,15.64,8.71,0,17-11.61,19.37-24Z" transform="translate(-82.09 -54.62)"/><path d="M521.31,290.27l15-78.61h18.12l-15,78.57Zm18.07-99.55a10.94,10.94,0,0,1,10.78-11.12h0c5.8,0,9.52,4.18,9.35,9.83a10.67,10.67,0,0,1-10.18,11.13h-1C542.77,200.56,539.22,196.52,539.38,190.72Z" transform="translate(-82.09 -54.62)"/><path d="M598.41,190.39l-4,21.27h16.78l-2.74,13.71H591.64L585,259.74a61.92,61.92,0,0,0-1.29,10.16c0,4.2,2.09,6.78,6.78,6.78a36.15,36.15,0,0,0,6-.31l-1.77,14a41.36,41.36,0,0,1-11.61,1.45c-12.26,0-17.91-6.78-17.91-16A69,69,0,0,1,566.82,262l7.09-36.59H563.75l2.56-13.75h10.16l3.23-16.93Z" transform="translate(-82.09 -54.62)"/><path d="M657.12,290.27c.17-4.52.65-10.17,1.14-16.62h-.34c-7.59,13.71-16.94,18.26-25.83,18.26-12.9,0-21.13-10.32-21.13-25.49,0-26,16.78-56.3,52.12-56.3a72,72,0,0,1,22.1,3.38l-8.38,41.95c-2.1,11.13-3.56,25.65-3.23,34.86Zm7.9-65.51a25.37,25.37,0,0,0-6.78-.8c-16.61,0-28.56,21.91-28.71,38.71,0,8.23,2.58,14.52,9.83,14.52,8.23,0,17.59-11.29,21.14-29.68Z" transform="translate(-82.09 -54.62)"/><path d="M690,290.27l21.62-113.75h18.1L708,290.27Z" transform="translate(-82.09 -54.62)"/><path d="M172.17,227.59c90.94,60,138.68-71.21,37.37-105.54l-1.22,1.75c23.76,12.35,43.69,42.53,38.5,71.51-4.76,26.91-33.86,44.57-73.37,29.77Z" transform="translate(-82.09 -54.62)"/><path class="cls-1" d="M82.09,245.1l26.78-12.23c46.88,47.27,123.83,63.44,168.78,25.95l1.84,1.05c-15.39,22.61-97.39,65.5-197.36-14.75" transform="translate(-82.09 -54.62)"/><path d="M122.8,163.2,176,54.62c21.71,2.16,71.83,18.88,103.26,51.88,23,24.1,33.56,60.3,28.1,88.87l-2.22.09C308.24,144.24,258,86.88,187,80.21l-61.54,83.71Z" transform="translate(-82.09 -54.62)"/><path class="cls-1" d="M108.39,394.08a27.08,27.08,0,0,1-10.64,2c-10,0-15.66-6.92-15.66-16.27,0-14.45,10.3-27.43,25.26-27.43a20.78,20.78,0,0,1,7.52,1.29l-2.49,7.74a12.73,12.73,0,0,0-5.37-1c-9,0-14.89,9.34-14.89,18.26,0,6.08,3.11,9.6,8.3,9.6a18.41,18.41,0,0,0,7.79-1.73Z" transform="translate(-82.09 -54.62)"/><path class="cls-1" d="M144.73,393.05a31.15,31.15,0,0,1-13.75,3c-11.08,0-16.1-7.1-16.1-16.79,0-12.54,8.52-27,22.59-27,7.87,0,12.46,4.93,12.55,11.51,0,10.81-10.73,14.54-25.57,14.28a13.66,13.66,0,0,0,1,6.09c1.38,2.76,4.15,4.24,7.87,4.24a23.51,23.51,0,0,0,10.56-2.6Zm-8.52-33.32c-5.45,0-9.35,5.29-10.72,11.08,9.08.09,15.48-1.56,15.48-6.75-.05-2.66-1.86-4.34-4.81-4.34Z" transform="translate(-82.09 -54.62)"/><path class="cls-1" d="M152.24,395.28l5.46-28.73c1-5.2,1.64-9.74,2.17-13.39h8.52l-.83,7h.17c3.73-5.28,8.66-8,14-8,6,0,9.87,3.81,9.87,10.81a42.27,42.27,0,0,1-.78,7.1l-4.76,25.09h-9.74L181,370.56a31.44,31.44,0,0,0,.53-5c0-3.12-1.22-5.37-4.59-5.37-4.16,0-9.44,5.29-11.17,14.54l-3.89,20.51Z" transform="translate(-82.09 -54.62)"/><path class="cls-1" d="M217.57,341.72l-2.17,11.42h9l-1.47,7.3h-9l-3.54,18.43a34.56,34.56,0,0,0-.7,5.46,3.27,3.27,0,0,0,2.8,3.65,3.1,3.1,0,0,0,.86,0,20.13,20.13,0,0,0,3.2-.17l-1,7.53a22.23,22.23,0,0,1-6.23.78c-6.58,0-9.61-3.65-9.61-8.52a38.06,38.06,0,0,1,.86-7.44l3.81-19.65H199l1.38-7.3h5.46l1.73-9.08Z" transform="translate(-82.09 -54.62)"/><path class="cls-1" d="M253.91,393.05a31.16,31.16,0,0,1-13.76,3c-11.08,0-16.09-7.1-16.09-16.79,0-12.54,8.52-27,22.58-27,7.88,0,12.47,4.93,12.55,11.51,0,10.81-10.72,14.54-25.56,14.28a13.79,13.79,0,0,0,1,6.09c1.39,2.76,4.15,4.24,7.88,4.24a23.47,23.47,0,0,0,10.55-2.6Zm-8.52-33.32c-5.46,0-9.35,5.29-10.73,11.08,9.08.09,15.49-1.56,15.49-6.75-.06-2.66-1.86-4.34-4.81-4.34Z" transform="translate(-82.09 -54.62)"/><path class="cls-1" d="M261.42,395.28l5.1-26.78c1-5.71,1.65-11.68,2.08-15.4H277c-.17,2.68-.42,5.36-.86,8.52h.34c2.86-5.62,7.18-9.35,12.37-9.35a13.57,13.57,0,0,1,1.9.18L288.92,362c-.42,0-1.12-.08-1.81-.08-6.49,0-11.08,7-12.64,15.31l-3.37,18.09Z" transform="translate(-82.09 -54.62)"/><path class="cls-1" d="M344,368.8c0,13.59-8.91,27.35-22.84,27.35-10.21,0-15.57-7.44-15.57-16.45,0-13.93,9.08-27.43,23-27.43C339.38,352.27,344,360.5,344,368.8ZM315.5,379.36c0,5.2,2.16,9.26,6.92,9.26,7.19,0,11.59-12,11.59-20.07,0-4.07-1.55-8.74-6.74-8.74C319.9,359.81,315.5,371.48,315.5,379.36Z" transform="translate(-82.09 -54.62)"/><path class="cls-1" d="M348.79,395.28l6.58-34.78h-5.46l1.39-7.3h5.54l.35-2.17c.95-5.19,2.95-10.3,6.75-13.67a16.32,16.32,0,0,1,10.81-3.9,14.62,14.62,0,0,1,5.88,1.05l-1.9,7.61a9.71,9.71,0,0,0-3.81-.61c-4.68,0-7.31,4.5-8.13,9.74l-.34,2H375l-1.48,7.3H365l-6.53,34.73Z" transform="translate(-82.09 -54.62)"/><path class="cls-1" d="M424.59,392.21a31.24,31.24,0,0,1-13.81,3c-11.07,0-16.09-7.1-16.09-16.79,0-12.54,8.52-27,22.58-27,7.88,0,12.47,4.93,12.55,11.51,0,10.81-10.72,14.54-25.56,14.28a13.79,13.79,0,0,0,1,6.09c1.39,2.76,4.15,4.24,7.88,4.24a23.47,23.47,0,0,0,10.55-2.6Zm-8.52-33.32c-5.46,0-9.35,5.29-10.73,11.08,9.08.09,15.49-1.56,15.49-6.75-.05-2.68-1.87-4.33-4.81-4.33Z" transform="translate(-82.09 -54.62)"/><path class="cls-1" d="M445.87,352.32l2.76,7.79c1,3.12,1.65,5.29,2.25,7h.17c1.48-2.25,2.6-4.15,4.24-6.57l5.71-8.22h10.81L455.19,373l8.66,21.46H453.39l-2.86-8.05c-1-3-1.64-4.87-2.43-7.6h-.17c-1.12,2-2.34,4.06-4.07,6.92l-6.09,8.74H426.82l17-21.63-8.52-20.51Z" transform="translate(-82.09 -54.62)"/><path class="cls-1" d="M495.7,393.25a27.4,27.4,0,0,1-10.66,2c-10,0-15.65-6.93-15.65-16.27,0-14.45,10.3-27.43,25.26-27.43a20.7,20.7,0,0,1,7.52,1.29l-2.52,7.7a12.84,12.84,0,0,0-5.37-1.05c-9,0-14.88,9.35-14.88,18.26,0,6.09,3.11,9.61,8.3,9.61a18.41,18.41,0,0,0,7.79-1.73Z" transform="translate(-82.09 -54.62)"/><path class="cls-1" d="M532,392.21a31.19,31.19,0,0,1-13.76,3c-11.08,0-16.09-7.1-16.09-16.79,0-12.54,8.52-27,22.58-27,7.87,0,12.46,4.93,12.55,11.51,0,10.81-10.73,14.54-25.57,14.28a13.8,13.8,0,0,0,1,6.09c1.39,2.76,4.15,4.24,7.88,4.24a23.5,23.5,0,0,0,10.55-2.6Zm-8.53-33.32c-5.45,0-9.35,5.29-10.72,11.08,9.08.09,15.48-1.56,15.48-6.75,0-2.68-1.83-4.33-4.8-4.33Z" transform="translate(-82.09 -54.62)"/><path class="cls-1" d="M557.72,394.47l11.59-61.07h9.74l-11.67,61Z" transform="translate(-82.09 -54.62)"/><path class="cls-1" d="M608.85,392.21a31.15,31.15,0,0,1-13.75,3c-11.08,0-16.1-7.1-16.1-16.79,0-12.54,8.53-27,22.59-27,7.87,0,12.46,4.93,12.55,11.51,0,10.81-10.73,14.54-25.57,14.28a13.66,13.66,0,0,0,1,6.09c1.38,2.76,4.15,4.24,7.87,4.24A23.51,23.51,0,0,0,608,385Zm-8.52-33.32c-5.45,0-9.35,5.29-10.72,11.08,9.08.09,15.48-1.56,15.48-6.75-.05-2.68-1.86-4.33-4.81-4.33Z" transform="translate(-82.09 -54.62)"/><path class="cls-1" d="M616.37,394.47l5.45-28.73c1-5.2,1.64-9.74,2.17-13.4h8.52l-.87,7.1h.17c3.73-5.28,8.66-8,14-8,6,0,9.86,3.81,9.86,10.81a42.38,42.38,0,0,1-.78,7.1l-4.76,25.09h-9.74l4.68-24.67a31.18,31.18,0,0,0,.52-5c0-3.12-1.22-5.37-4.59-5.37-4.15,0-9.44,5.28-11.16,14.54L626,394.48Z" transform="translate(-82.09 -54.62)"/><path class="cls-1" d="M688.09,393.25a27.2,27.2,0,0,1-10.7,2c-10,0-15.65-6.93-15.65-16.27,0-14.45,10.3-27.43,25.26-27.43a20.74,20.74,0,0,1,7.52,1.29L692,360.55a12.82,12.82,0,0,0-5.36-1.05c-9,0-14.89,9.35-14.89,18.26,0,6.09,3.11,9.61,8.3,9.61a18.41,18.41,0,0,0,7.79-1.73Z" transform="translate(-82.09 -54.62)"/><path class="cls-1" d="M724.43,392.21a31.15,31.15,0,0,1-13.75,3c-11.08,0-16.1-7.1-16.1-16.79,0-12.54,8.52-27,22.59-27,7.87,0,12.46,4.93,12.55,11.51,0,10.81-10.73,14.54-25.57,14.28a13.66,13.66,0,0,0,1,6.09c1.38,2.76,4.15,4.24,7.87,4.24a23.51,23.51,0,0,0,10.56-2.6Zm-8.52-33.32c-5.45,0-9.35,5.29-10.72,11.08,9.08.09,15.48-1.56,15.48-6.75,0-2.68-1.89-4.33-4.81-4.33Z" transform="translate(-82.09 -54.62)"/><path class="cls-1" d="M539.64,394.47l11.59-61.07H561l-11.67,61Z" transform="translate(-82.09 -54.62)"/></g></g></svg>