<svg id="Layer_1" data-name="Layer 1" xmlns="http://www.w3.org/2000/svg" viewBox="0 0 1121.62 591.47"><defs><style>.cls-1{fill:#fff;}.cls-2{fill:#619e41;}</style></defs><title>Logo digital</title><path class="cls-1" d="M1886.75,995.35l-11.74,62a44.91,44.91,0,0,0-18.72-3.9c-47.23,0-79.36,46.38-79.36,93.88,0,29.07,15,47.8,38,47.8,15.9,0,31.62-8.65,42.17-26h.54l-2.23,23.19h27.93a380.39,380.39,0,0,1,6.16-47.79l28.44-149.21Zm-25.34,134.15c-5.31,25.72-20.41,40.25-33.25,40.25-13.66,0-19-11.76-19-27.41,0-29,18.47-64.53,44.71-64.53,7,0,12.87,2,16.22,5Z" transform="translate(-1359.19 -784.27)"/><path class="cls-1" d="M1964.27,1000.71h0a19,19,0,0,0-18.68,19.27c-.27,10,5.86,17,15.65,17q.79,0,1.59,0a18.5,18.5,0,0,0,17.68-19.27C1980.76,1008,1974.33,1000.71,1964.27,1000.71Z" transform="translate(-1359.19 -784.27)"/><polygon class="cls-1" points="555.08 408.11 586.38 408.04 612.36 271.97 581.05 271.97 555.08 408.11"/><path class="cls-1" d="M1983.33,1146.81c.21,24.88,13.64,45.27,38,45.27,15.35,0,28.49-7,39.39-23.19h.54l-3.35,16.21c-6.13,28.78-20.38,40-41.07,40-11.17,0-24.58-3.08-31.85-7.55l-7.74,24.42c7.8,4.74,22.89,8.09,38.26,8.09,17.06,0,34.67-3.62,47.8-15.09,14-12.08,21.5-32.49,26.25-59l21.25-113.45a106.61,106.61,0,0,0-43.33-8.94C2012.85,1053.5,1983,1102.39,1983.33,1146.81Zm84.59-21c-4,21.5-18.45,41.61-33.54,41.61-14.24,0-18.7-13.13-18.7-27.09.27-28,18.44-62.32,45.53-62.32a35.82,35.82,0,0,1,15.37,2.8Z" transform="translate(-1359.19 -784.27)"/><polygon class="cls-1" points="760.66 408.11 792.05 408.04 818.03 271.97 786.65 271.97 760.66 408.11"/><path class="cls-1" d="M2169.86,1000.71h-.05a19,19,0,0,0-18.68,19.27c-.27,10,5.89,17,15.65,17a15,15,0,0,0,1.64,0,18.47,18.47,0,0,0,17.63-19.27C2186.34,1008,2179.91,1000.71,2169.86,1000.71Z" transform="translate(-1359.19 -784.27)"/><path class="cls-1" d="M2241.64,1080h29.08l4.74-23.74h-29.05l7-36.83-32.41,7.5-5.59,29.33h-17.6l-4.43,23.8H2211l-12.29,63.38a119.2,119.2,0,0,0-2.81,24c0,15.92,9.78,27.66,31,27.66a71.92,71.92,0,0,0,20.12-2.51l3.06-24.3a62.71,62.71,0,0,1-10.34.54c-8.11,0-11.74-4.47-11.74-11.74a108.49,108.49,0,0,1,2.24-17.6Z" transform="translate(-1359.19 -784.27)"/><path class="cls-1" d="M2275.1,1151.07c0,26.27,14.26,44.15,36.6,44.15,15.39,0,31.59-7.89,44.72-31.63h.59c-.84,11.18-1.66,21-2,28.78l28.48.07c-.57-15.94,2-41.09,5.59-60.36l14.53-72.66a125.58,125.58,0,0,0-38.29-5.86C2304.16,1053.56,2275.1,1106.1,2275.1,1151.07Zm85.79-32.74c-6.13,31.83-22.35,51.4-36.6,51.4-12.57,0-17-10.9-17-25.15.27-29.1,20.95-67,49.73-67a45.07,45.07,0,0,1,11.74,1.39Z" transform="translate(-1359.19 -784.27)"/><polygon class="cls-1" points="1090.27 211.1 1052.83 408.11 1083.9 408.11 1121.62 211.1 1090.27 211.1"/><path class="cls-1" d="M1579.91,901.05l-2.11,3c41.15,21.38,75.67,73.65,66.69,123.84-8.25,46.6-58.66,77.19-127.07,51.55l-2.22,4.35C1672.69,1187.65,1755.36,960.5,1579.91,901.05Z" transform="translate(-1359.19 -784.27)"/><path class="cls-1" d="M1521.76,784.27l-92.07,188,4.64,1.24,106.57-145c122.9,11.56,209.95,110.9,204.51,199.6l3.84-.15c9.46-49.48-8.86-112.18-48.66-153.91C1646.15,817,1559.35,788,1521.76,784.27Z" transform="translate(-1359.19 -784.27)"/><path class="cls-2" d="M1732.72,1151.58c-12.57,0-21.8,10.81-21.8,23.46,0,11.47,7.27,20.12,18.7,20.14,12.59,0,22.07-9.79,22.07-23.19C1751.69,1160.24,1744.46,1151.58,1732.72,1151.58Z" transform="translate(-1359.19 -784.27)"/><path class="cls-2" d="M1701.05,1139.73l-3.18-1.81c-77.84,64.91-211.11,36.91-292.3-45l-46.38,21.18.08,0C1532.39,1253.16,1674.4,1178.88,1701.05,1139.73Z" transform="translate(-1359.19 -784.27)"/><path class="cls-2" d="M1359.19,1347.42c0,16.19,9.74,28.17,27.13,28.19a47.12,47.12,0,0,0,18.43-3.46l-.32-13.14a32.07,32.07,0,0,1-13.49,3c-9,0-14.38-6.09-14.38-16.64,0-15.43,10.21-31.62,25.79-31.62a22.29,22.29,0,0,1,9.29,1.81l4.33-13.41a36,36,0,0,0-13-2.23C1377,1299.92,1359.19,1322.39,1359.19,1347.42Z" transform="translate(-1359.19 -784.27)"/><path class="cls-2" d="M1455.1,1299.79c-24.36,0-39.11,25-39.11,46.76,0,16.79,8.68,29.08,27.87,29.08a54,54,0,0,0,23.82-5.25l-1.41-12.53a40.67,40.67,0,0,1-18.28,4.5c-6.45,0-11.24-2.56-13.64-7.34a23.64,23.64,0,0,1-1.79-10.54c25.7.44,44.27-6,44.27-24.73C1476.68,1308.33,1468.74,1299.79,1455.1,1299.79Zm-20.75,32.07c2.38-10,9.13-19.19,18.57-19.19l-.08,0c5.1,0,8.24,2.91,8.33,7.51C1461.17,1329.16,1450.08,1332,1434.35,1331.86Z" transform="translate(-1359.19 -784.27)"/><path class="cls-2" d="M1531.8,1299.67c-9.3,0-17.84,4.63-24.29,13.78h-.3l1.44-12.16h-14.76c-.91,6.32-2,14.19-3.75,23.19l-9.45,49.76,16.7-.11,6.75-35.52c3-16,12.14-25.18,19.33-25.18,5.84,0,8,3.9,8,9.3a53.93,53.93,0,0,1-.91,8.69l-8.1,42.71h16.87l8.24-43.45a72.57,72.57,0,0,0,1.35-12.29C1548.87,1306.26,1542.13,1299.67,1531.8,1299.67Z" transform="translate(-1359.19 -784.27)"/><path class="cls-2" d="M1581.38,1345.82l6.14-31.92h15.58l2.55-12.65h-15.58l3.75-19.78-17.39,4.18-3,15.72H1564l-2.4,12.65h9.48l-6.59,34a63.45,63.45,0,0,0-1.5,12.88c0,8.44,5.25,14.76,16.63,14.76a38.6,38.6,0,0,0,10.8-1.35l1.64-13a34.25,34.25,0,0,1-5.54.3,6.19,6.19,0,0,1-1.49,0,5.64,5.64,0,0,1-4.84-6.33A58.88,58.88,0,0,1,1581.38,1345.82Z" transform="translate(-1359.19 -784.27)"/><path class="cls-2" d="M1644.17,1299.79c-24.35,0-39.11,25-39.11,46.76,0,16.79,8.69,29.08,27.87,29.08a54.09,54.09,0,0,0,23.83-5.25l-1.42-12.53a40.61,40.61,0,0,1-18.28,4.5c-6.45,0-11.23-2.56-13.64-7.34a23.78,23.78,0,0,1-1.79-10.54c25.7.44,44.28-6,44.28-24.73C1665.76,1308.33,1657.81,1299.79,1644.17,1299.79Zm-20.75,32.07c2.39-10,9.13-19.19,18.58-19.19l-.09,0c5.11,0,8.23,2.91,8.33,7.51C1650.24,1329.16,1639.15,1332,1623.42,1331.86Z" transform="translate(-1359.19 -784.27)"/><path class="cls-2" d="M1695.82,1315.94h-.59c.76-5.48,1.2-10.12,1.5-14.76H1682.2c-.76,6.45-1.81,16.79-3.6,26.67l-8.84,46.39,16.77,0,5.84-31.33c2.69-14.4,10.64-26.52,21.88-26.52,1.2,0,2.4.14,3.14.14l3.14-16.48a21.19,21.19,0,0,0-3.29-.32C1708.26,1299.75,1700.78,1306.2,1695.82,1315.94Z" transform="translate(-1359.19 -784.27)"/><path class="cls-2" d="M1786.06,1299.75c-24.14,0-39.87,23.38-39.87,47.5,0,15.6,9.28,28.48,27,28.48,24.12,0,39.55-23.82,39.55-47.35C1812.71,1314,1804.78,1299.75,1786.06,1299.75Zm-10.65,63c-8.24,0-12-7-12-16,0-13.64,7.63-33.86,20.38-33.86,9,0,11.68,8.1,11.68,15.14C1795.48,1341.87,1787.85,1362.7,1775.41,1362.7Z" transform="translate(-1359.19 -784.27)"/><path class="cls-2" d="M1866,1267.18a28.22,28.22,0,0,0-18.72,6.74c-6.58,5.84-10,14.7-11.68,23.68l-.62,3.75h-9.59L1823,1314h9.44l-11.38,60.24h16.7l11.32-60.15h14.76l2.55-12.65h-14.76l.59-3.46c1.43-9.07,6-16.87,14.08-16.87a16.88,16.88,0,0,1,6.6,1.06l3.29-13.18A25.15,25.15,0,0,0,1866,1267.18Z" transform="translate(-1359.19 -784.27)"/><path class="cls-2" d="M1961.41,1318.28c-.15-11.4-8.1-19.94-21.74-19.94-24.35,0-39.11,25-39.11,46.76,0,16.78,8.69,29.07,27.87,29.07a54,54,0,0,0,23.91-5.25l-1.5-12.52a40.46,40.46,0,0,1-18.27,4.49c-6.46,0-11.24-2.55-13.65-7.34a23.76,23.76,0,0,1-1.79-10.54C1942.83,1343.45,1961.41,1337,1961.41,1318.28Zm-23.86-7.06c5.07,0,8.19,2.86,8.28,7.48,0,9-11.09,11.85-26.82,11.7C1921.39,1320.38,1928.12,1311.24,1937.55,1311.22Z" transform="translate(-1359.19 -784.27)"/><path class="cls-2" d="M2034.12,1299.85H2015.4l-9.89,14.24c-2.84,4.19-4.78,7.48-7.33,11.38h-.3c-1.05-3-2.11-6.75-3.9-12.14l-4.79-13.5-18.23.07,14.76,35.52-29.52,37.47h19l10.55-15.14c3-5,5.1-8.56,7-12h.29c1.37,4.75,2.43,7.93,4.22,13.18l5,13.94h18.11l-15-37.17Z" transform="translate(-1359.19 -784.27)"/><path class="cls-2" d="M2029.93,1346c0,16.17,9.72,28.16,27.11,28.16a47.21,47.21,0,0,0,18.45-3.45l-.36-13.2a31.94,31.94,0,0,1-13.49,3c-9,0-14.38-6.09-14.38-16.63,0-15.44,10.2-31.63,25.78-31.63a22.3,22.3,0,0,1,9.3,1.81l4.36-13.32a35.69,35.69,0,0,0-13-2.23C2047.76,1298.51,2029.93,1321,2029.93,1346Z" transform="translate(-1359.19 -784.27)"/><path class="cls-2" d="M2125.83,1298.34c-24.35,0-39.1,25-39.1,46.76,0,16.78,8.68,29.07,27.87,29.07a53.94,53.94,0,0,0,23.82-5.25L2137,1356.4a40.53,40.53,0,0,1-18.28,4.49c-6.45,0-11.24-2.55-13.64-7.34a23.76,23.76,0,0,1-1.79-10.54c25.7.44,44.27-6,44.27-24.73C2147.42,1306.88,2139.48,1298.34,2125.83,1298.34Zm-20.74,32.06c2.38-10,9.11-19.16,18.54-19.18,5.11,0,8.19,2.86,8.28,7.48C2131.91,1327.71,2120.82,1330.55,2105.09,1330.4Z" transform="translate(-1359.19 -784.27)"/><polygon class="cls-2" points="843.79 482.8 823.72 588.56 840.44 588.45 860.66 482.8 843.79 482.8"/><path class="cls-2" d="M2258.87,1298.34c-24.35,0-39.11,25-39.11,46.76,0,16.78,8.69,29.07,27.87,29.07a54,54,0,0,0,23.83-5.25L2270,1356.4a40.47,40.47,0,0,1-18.28,4.49c-6.45,0-11.23-2.55-13.64-7.34a23.76,23.76,0,0,1-1.79-10.54c25.7.44,44.28-6,44.28-24.73C2280.46,1306.88,2272.51,1298.34,2258.87,1298.34Zm-20.75,32.06c2.38-10,9.12-19.16,18.55-19.18,5.07,0,8.19,2.86,8.27,7.48C2264.94,1327.71,2253.85,1330.55,2238.12,1330.4Z" transform="translate(-1359.19 -784.27)"/><path class="cls-2" d="M2335.51,1298.38c-9.3,0-17.84,4.64-24.29,13.79h-.3l1.5-12.29h-14.76c-.9,6.32-2,14.18-3.75,23.19l-9.45,49.75,16.64,0,6.75-35.52c3-16,12.14-25.17,19.33-25.17,5.84,0,8,3.9,8,9.29a53.93,53.93,0,0,1-.91,8.69l-8.1,42.71H2343l8.24-43.45a72.46,72.46,0,0,0,1.35-12.29C2352.58,1305,2345.84,1298.38,2335.51,1298.38Z" transform="translate(-1359.19 -784.27)"/><path class="cls-2" d="M2363,1346c0,16.17,9.72,28.16,27.11,28.16a47.08,47.08,0,0,0,18.54-3.45l-.43-13.18a31.91,31.91,0,0,1-13.49,3c-9,0-14.38-6.09-14.38-16.63,0-15.44,10.21-31.63,25.79-31.63a22.14,22.14,0,0,1,9.29,1.82l4.35-13.35a35.78,35.78,0,0,0-13-2.23C2380.88,1298.51,2363,1321,2363,1346Z" transform="translate(-1359.19 -784.27)"/><path class="cls-2" d="M2480.77,1318.28c-.15-11.4-8.1-19.94-21.74-19.94-24.35,0-39.11,25-39.11,46.76,0,16.78,8.69,29.07,27.88,29.07a53.94,53.94,0,0,0,23.82-5.25l-1.41-12.52a40.53,40.53,0,0,1-18.28,4.49c-6.45,0-11.24-2.55-13.64-7.34a23.77,23.77,0,0,1-1.8-10.54C2462.2,1343.45,2480.77,1337,2480.77,1318.28Zm-23.94-7.06c5,0,8.19,2.86,8.27,7.48,0,9-11.09,11.85-26.81,11.7C2440.67,1320.38,2447.4,1311.24,2456.83,1311.22Z" transform="translate(-1359.19 -784.27)"/><polygon class="cls-2" points="812.48 482.8 792.41 588.56 809.13 588.45 829.35 482.8 812.48 482.8"/></svg>